<svg xmlns="http://www.w3.org/2000/svg" xmlns:xlink="http://www.w3.org/1999/xlink" width="3173pt" height="641pt" viewBox="0.00 0.00 3173.07 640.80">
<g id="graph0" class="graph" transform="scale(1 1) rotate(0) translate(4 636.8)">
<title>DependencyGraph</title>
<polygon fill="white" stroke="none" points="-4,4 -4,-636.8 3169.07,-636.8 3169.07,4 -4,4"/>
<text text-anchor="middle" x="1582.54" y="-8.2" font-family="Times,serif" font-size="14.00">DependencyGraph</text>
<g id="clust1" class="cluster">
<title>cluster_CodeLineCounter_Tests</title>
<polygon fill="none" stroke="black" points="221.38,-326.4 221.38,-518.4 1799.38,-518.4 1799.38,-326.4 221.38,-326.4"/>
<text text-anchor="middle" x="1010.38" y="-501.8" font-family="Times,serif" font-size="14.00">CodeLineCounter.Tests</text>
</g>
<g id="clust2" class="cluster">
<title>cluster_CodeLineCounter_Utils</title>
<polygon fill="none" stroke="black" points="797.38,-32.8 797.38,-318.4 1199.38,-318.4 1199.38,-32.8 797.38,-32.8"/>
<text text-anchor="middle" x="998.38" y="-301.8" font-family="Times,serif" font-size="14.00">CodeLineCounter.Utils</text>
</g>
<g id="clust3" class="cluster">
<title>cluster_CodeLineCounter_Models</title>
<polygon fill="none" stroke="black" points="2599.38,-126.4 2599.38,-318.4 3038.38,-318.4 3038.38,-126.4 2599.38,-126.4"/>
<text text-anchor="middle" x="2818.88" y="-301.8" font-family="Times,serif" font-size="14.00">CodeLineCounter.Models</text>
</g>
<g id="clust4" class="cluster">
<title>cluster_CodeLineCounter_Services</title>
<polygon fill="none" stroke="black" points="2025.38,-126.4 2025.38,-518.4 2578.38,-518.4 2578.38,-126.4 2025.38,-126.4"/>
<text text-anchor="middle" x="2301.88" y="-501.8" font-family="Times,serif" font-size="14.00">CodeLineCounter.Services</text>
</g>
<g id="clust5" class="cluster">
<title>cluster_CodeLineCounter_Tests_Services</title>
<polygon fill="none" stroke="black" points="2880.38,-526.4 2880.38,-624.8 3080.38,-624.8 3080.38,-526.4 2880.38,-526.4"/>
<text text-anchor="middle" x="2980.38" y="-608.2" font-family="Times,serif" font-size="14.00">CodeLineCounter.Tests.Services</text>
</g>
<g id="clust6" class="cluster">
<title>cluster_CodeLineCounter</title>
<polygon fill="none" stroke="black" points="143.38,-526.4 143.38,-624.8 259.38,-624.8 259.38,-526.4 143.38,-526.4"/>
<text text-anchor="middle" x="201.38" y="-608.2" font-family="Times,serif" font-size="14.00">CodeLineCounter</text>
</g>
<!-- CsvHandlerTests -->
<g id="node1" class="node">
<title>CsvHandlerTests</title>
<polygon fill="#ffa07a" stroke="black" points="459.6,-485.6 347.17,-485.6 347.17,-428 459.6,-428 459.6,-485.6"/>
<text text-anchor="middle" x="403.38" y="-469" font-family="Times,serif" font-size="14.00">CsvHandlerTests</text>
<text text-anchor="middle" x="403.38" y="-436.2" font-family="Times,serif" font-size="14.00">In: 1, Out: 2</text>
</g>
<!-- TestRecord -->
<g id="node2" class="node">
<title>TestRecord</title>
<polygon fill="#ffa07a" stroke="black" points="1073.6,-392 989.16,-392 989.16,-334.4 1073.6,-334.4 1073.6,-392"/>
<text text-anchor="middle" x="1031.38" y="-375.4" font-family="Times,serif" font-size="14.00">TestRecord</text>
<text text-anchor="middle" x="1031.38" y="-342.6" font-family="Times,serif" font-size="14.00">In: 1, Out: 2</text>
</g>
<!-- CsvHandlerTests&#45;&gt;TestRecord -->
<g id="edge1" class="edge">
<title>CsvHandlerTests-&gt;TestRecord</title>
<path fill="none" stroke="black" d="M459.76,-430.54C462.65,-429.61 465.53,-428.75 468.38,-428 650.88,-379.75 876.14,-367.98 977.49,-365.12"/>
<polygon fill="black" stroke="black" points="977.52,-368.62 987.43,-364.86 977.34,-361.62 977.52,-368.62"/>
</g>
<!-- CsvHandler -->
<g id="node13" class="node">
<title>CsvHandler</title>
<polygon fill="none" stroke="black" points="958.6,-98.4 874.16,-98.4 874.16,-40.8 958.6,-40.8 958.6,-98.4"/>
<text text-anchor="middle" x="916.38" y="-81.8" font-family="Times,serif" font-size="14.00">CsvHandler</text>
<text text-anchor="middle" x="916.38" y="-49" font-family="Times,serif" font-size="14.00">In: 2, Out: 2</text>
</g>
<!-- CsvHandlerTests&#45;&gt;CsvHandler -->
<g id="edge2" class="edge">
<title>CsvHandlerTests-&gt;CsvHandler</title>
<path fill="none" stroke="black" d="M423.74,-427.87C471.2,-364.76 595.77,-210.13 735.38,-126.4 774.74,-102.8 824.98,-88.34 862.54,-80.08"/>
<polygon fill="black" stroke="black" points="863.22,-83.51 872.28,-78.02 861.77,-76.66 863.22,-83.51"/>
</g>
<!-- FileUtilsTests -->
<g id="node3" class="node">
<title>FileUtilsTests</title>
<polygon fill="#90ee90" stroke="black" points="825.66,-485.6 731.1,-485.6 731.1,-428 825.66,-428 825.66,-485.6"/>
<text text-anchor="middle" x="778.38" y="-469" font-family="Times,serif" font-size="14.00">FileUtilsTests</text>
<text text-anchor="middle" x="778.38" y="-436.2" font-family="Times,serif" font-size="14.00">In: 6, Out: 1</text>
</g>
<!-- FileUtils -->
<g id="node18" class="node">
<title>FileUtils</title>
<polygon fill="#90ee90" stroke="black" points="1076.6,-285.6 992.16,-285.6 992.16,-228 1076.6,-228 1076.6,-285.6"/>
<text text-anchor="middle" x="1034.38" y="-269" font-family="Times,serif" font-size="14.00">FileUtils</text>
<text text-anchor="middle" x="1034.38" y="-236.2" font-family="Times,serif" font-size="14.00">In: 6, Out: 1</text>
</g>
<!-- FileUtilsTests&#45;&gt;FileUtils -->
<g id="edge12" class="edge">
<title>FileUtilsTests-&gt;FileUtils</title>
<path fill="none" stroke="black" d="M797.87,-427.66C820.73,-397.1 861.64,-349.57 909.38,-326.4 935.17,-313.88 947.61,-330.95 973.38,-318.4 985.32,-312.59 996.33,-303.5 1005.61,-294.11"/>
<polygon fill="black" stroke="black" points="1008.01,-296.67 1012.27,-286.97 1002.89,-291.89 1008.01,-296.67"/>
</g>
<!-- JsonHandlerTests -->
<g id="node4" class="node">
<title>JsonHandlerTests</title>
<polygon fill="none" stroke="black" points="713.15,-485.6 597.61,-485.6 597.61,-428 713.15,-428 713.15,-485.6"/>
<text text-anchor="middle" x="655.38" y="-469" font-family="Times,serif" font-size="14.00">JsonHandlerTests</text>
<text text-anchor="middle" x="655.38" y="-436.2" font-family="Times,serif" font-size="14.00">In: 2, Out: 2</text>
</g>
<!-- TestClass -->
<g id="node5" class="node">
<title>TestClass</title>
<polygon fill="none" stroke="black" points="1175.6,-392 1091.16,-392 1091.16,-334.4 1175.6,-334.4 1175.6,-392"/>
<text text-anchor="middle" x="1133.38" y="-375.4" font-family="Times,serif" font-size="14.00">TestClass</text>
<text text-anchor="middle" x="1133.38" y="-342.6" font-family="Times,serif" font-size="14.00">In: 2, Out: 2</text>
</g>
<!-- JsonHandlerTests&#45;&gt;TestClass -->
<g id="edge13" class="edge">
<title>JsonHandlerTests-&gt;TestClass</title>
<path fill="none" stroke="black" d="M713.5,-430.5C716.48,-429.58 719.45,-428.74 722.38,-428 874.82,-389.65 926.42,-437.19 1080.04,-392.22"/>
<polygon fill="black" stroke="black" points="1080.78,-395.66 1089.34,-389.41 1078.76,-388.96 1080.78,-395.66"/>
</g>
<!-- JsonHandler -->
<g id="node19" class="node">
<title>JsonHandler</title>
<polygon fill="none" stroke="black" points="1116.38,-98.4 1030.39,-98.4 1030.39,-40.8 1116.38,-40.8 1116.38,-98.4"/>
<text text-anchor="middle" x="1073.38" y="-81.8" font-family="Times,serif" font-size="14.00">JsonHandler</text>
<text text-anchor="middle" x="1073.38" y="-49" font-family="Times,serif" font-size="14.00">In: 2, Out: 2</text>
</g>
<!-- JsonHandlerTests&#45;&gt;JsonHandler -->
<g id="edge14" class="edge">
<title>JsonHandlerTests-&gt;JsonHandler</title>
<path fill="none" stroke="black" d="M658.41,-427.88C667.01,-363.38 697.69,-203.68 796.38,-126.4 857.02,-78.92 892.05,-114.41 967.38,-98.4 984.24,-94.82 1002.44,-90.29 1018.93,-85.93"/>
<polygon fill="black" stroke="black" points="1019.81,-89.32 1028.56,-83.35 1018,-82.56 1019.81,-89.32"/>
</g>
<!-- CyclomaticComplexityCalculatorTests -->
<g id="node6" class="node">
<title>CyclomaticComplexityCalculatorTests</title>
<polygon fill="#90ee90" stroke="black" points="1217.64,-485.6 983.13,-485.6 983.13,-428 1217.64,-428 1217.64,-485.6"/>
<text text-anchor="middle" x="1100.38" y="-469" font-family="Times,serif" font-size="14.00">CyclomaticComplexityCalculatorTests</text>
<text text-anchor="middle" x="1100.38" y="-436.2" font-family="Times,serif" font-size="14.00">In: 2, Out: 1</text>
</g>
<!-- CyclomaticComplexityCalculator -->
<g id="node27" class="node">
<title>CyclomaticComplexityCalculator</title>
<polygon fill="#90ee90" stroke="black" points="2237.86,-285.6 2032.9,-285.6 2032.9,-228 2237.86,-228 2237.86,-285.6"/>
<text text-anchor="middle" x="2135.38" y="-269" font-family="Times,serif" font-size="14.00">CyclomaticComplexityCalculator</text>
<text text-anchor="middle" x="2135.38" y="-236.2" font-family="Times,serif" font-size="14.00">In: 2, Out: 1</text>
</g>
<!-- CyclomaticComplexityCalculatorTests&#45;&gt;CyclomaticComplexityCalculator -->
<g id="edge26" class="edge">
<title>CyclomaticComplexityCalculatorTests-&gt;CyclomaticComplexityCalculator</title>
<path fill="none" stroke="black" d="M1218.07,-429.73C1220.87,-429.14 1223.64,-428.57 1226.38,-428 1511.61,-369.16 1849.01,-308.25 2021.44,-277.75"/>
<polygon fill="black" stroke="black" points="2021.83,-281.23 2031.07,-276.05 2020.61,-274.34 2021.83,-281.23"/>
</g>
<!-- CodeDuplicationCheckerTests -->
<g id="node7" class="node">
<title>CodeDuplicationCheckerTests</title>
<polygon fill="#90ee90" stroke="black" points="1423.3,-485.6 1235.46,-485.6 1235.46,-428 1423.3,-428 1423.3,-485.6"/>
<text text-anchor="middle" x="1329.38" y="-469" font-family="Times,serif" font-size="14.00">CodeDuplicationCheckerTests</text>
<text text-anchor="middle" x="1329.38" y="-436.2" font-family="Times,serif" font-size="14.00">In: 2, Out: 1</text>
</g>
<!-- CodeDuplicationChecker -->
<g id="node28" class="node">
<title>CodeDuplicationChecker</title>
<polygon fill="#90ee90" stroke="black" points="2414.53,-285.6 2256.24,-285.6 2256.24,-228 2414.53,-228 2414.53,-285.6"/>
<text text-anchor="middle" x="2335.38" y="-269" font-family="Times,serif" font-size="14.00">CodeDuplicationChecker</text>
<text text-anchor="middle" x="2335.38" y="-236.2" font-family="Times,serif" font-size="14.00">In: 2, Out: 1</text>
</g>
<!-- CodeDuplicationCheckerTests&#45;&gt;CodeDuplicationChecker -->
<g id="edge27" class="edge">
<title>CodeDuplicationCheckerTests-&gt;CodeDuplicationChecker</title>
<path fill="none" stroke="black" d="M1423.55,-429.77C1426.52,-429.14 1429.47,-428.55 1432.38,-428 1574.3,-401.1 1613.54,-419.28 1755.38,-392 1863.13,-371.28 1884.9,-342.83 1993.38,-326.4 2049,-317.98 2192.89,-335.81 2246.38,-318.4 2263.44,-312.85 2280.22,-302.94 2294.53,-292.72"/>
<polygon fill="black" stroke="black" points="2296.41,-295.69 2302.34,-286.91 2292.23,-290.07 2296.41,-295.69"/>
</g>
<!-- DataExporterTests -->
<g id="node8" class="node">
<title>DataExporterTests</title>
<polygon fill="#90ee90" stroke="black" points="964.86,-485.6 843.9,-485.6 843.9,-428 964.86,-428 964.86,-485.6"/>
<text text-anchor="middle" x="904.38" y="-469" font-family="Times,serif" font-size="14.00">DataExporterTests</text>
<text text-anchor="middle" x="904.38" y="-436.2" font-family="Times,serif" font-size="14.00">In: 7, Out: 6</text>
</g>
<!-- DataExporterTests&#45;&gt;TestClass -->
<g id="edge38" class="edge">
<title>DataExporterTests-&gt;TestClass</title>
<path fill="none" stroke="black" d="M965.01,-431.48C968.17,-430.29 971.31,-429.12 974.38,-428 1018.76,-411.81 1033.97,-412.07 1080.4,-392.59"/>
<polygon fill="black" stroke="black" points="1081.61,-395.88 1089.41,-388.72 1078.85,-389.45 1081.61,-395.88"/>
</g>
<!-- DataExporter -->
<g id="node14" class="node">
<title>DataExporter</title>
<polygon fill="none" stroke="black" points="1191.09,-285.6 1099.68,-285.6 1099.68,-228 1191.09,-228 1191.09,-285.6"/>
<text text-anchor="middle" x="1145.38" y="-269" font-family="Times,serif" font-size="14.00">DataExporter</text>
<text text-anchor="middle" x="1145.38" y="-236.2" font-family="Times,serif" font-size="14.00">In: 7, Out: 7</text>
</g>
<!-- DataExporterTests&#45;&gt;DataExporter -->
<g id="edge39" class="edge">
<title>DataExporterTests-&gt;DataExporter</title>
<path fill="none" stroke="black" d="M912.35,-427.55C922.63,-396.91 943.69,-349.3 980.38,-326.4 1000.24,-314.01 1064.14,-328.22 1085.38,-318.4 1097.44,-312.82 1108.41,-303.71 1117.58,-294.23"/>
<polygon fill="black" stroke="black" points="1120.02,-296.76 1124.14,-287 1114.83,-292.05 1120.02,-296.76"/>
</g>
<!-- CoreUtils -->
<g id="node15" class="node">
<title>CoreUtils</title>
<polygon fill="none" stroke="black" points="889.6,-192 805.16,-192 805.16,-134.4 889.6,-134.4 889.6,-192"/>
<text text-anchor="middle" x="847.38" y="-175.4" font-family="Times,serif" font-size="14.00">CoreUtils</text>
<text text-anchor="middle" x="847.38" y="-142.6" font-family="Times,serif" font-size="14.00">In: 7, Out: 7</text>
</g>
<!-- DataExporterTests&#45;&gt;CoreUtils -->
<g id="edge37" class="edge">
<title>DataExporterTests-&gt;CoreUtils</title>
<path fill="none" stroke="black" d="M896.88,-427.53C889.71,-399.85 878.9,-356.43 871.38,-318.4 863.72,-279.63 857,-234.98 852.63,-203.74"/>
<polygon fill="black" stroke="black" points="856.12,-203.39 851.29,-193.96 849.18,-204.34 856.12,-203.39"/>
</g>
<!-- DependencyRelation -->
<g id="node21" class="node">
<title>DependencyRelation</title>
<polygon fill="#90ee90" stroke="black" points="2871.08,-192 2737.68,-192 2737.68,-134.4 2871.08,-134.4 2871.08,-192"/>
<text text-anchor="middle" x="2804.38" y="-175.4" font-family="Times,serif" font-size="14.00">DependencyRelation</text>
<text text-anchor="middle" x="2804.38" y="-142.6" font-family="Times,serif" font-size="14.00">In: 9, Out: 1</text>
</g>
<!-- DataExporterTests&#45;&gt;DependencyRelation -->
<g id="edge42" class="edge">
<title>DataExporterTests-&gt;DependencyRelation</title>
<path fill="none" stroke="black" d="M965.12,-430.42C968.22,-429.52 971.32,-428.7 974.38,-428 1184.16,-379.72 1244.29,-422.49 1457.38,-392 1595.93,-372.18 1626.26,-341.71 1765.38,-326.4 1777.13,-325.11 2606.7,-325.17 2616.38,-318.4 2651.56,-293.8 2620.53,-258.85 2650.38,-228 2656.52,-221.66 2691.76,-206.88 2726.98,-193.14"/>
<polygon fill="black" stroke="black" points="2727.91,-196.53 2735.97,-189.66 2725.39,-190.01 2727.91,-196.53"/>
</g>
<!-- DuplicationCode -->
<g id="node22" class="node">
<title>DuplicationCode</title>
<polygon fill="#ffa07a" stroke="black" points="2719.21,-192 2607.56,-192 2607.56,-134.4 2719.21,-134.4 2719.21,-192"/>
<text text-anchor="middle" x="2663.38" y="-175.4" font-family="Times,serif" font-size="14.00">DuplicationCode</text>
<text text-anchor="middle" x="2663.38" y="-142.6" font-family="Times,serif" font-size="14.00">In: 6, Out: 7</text>
</g>
<!-- DataExporterTests&#45;&gt;DuplicationCode -->
<g id="edge41" class="edge">
<title>DataExporterTests-&gt;DuplicationCode</title>
<path fill="none" stroke="black" d="M965.18,-430.67C968.27,-429.7 971.35,-428.81 974.38,-428 1051.94,-407.4 1609.37,-332.42 1689.38,-326.4 1701.75,-325.47 2572.02,-325.21 2582.38,-318.4 2619.09,-294.26 2601.56,-266.68 2622.38,-228 2627.05,-219.33 2632.48,-210.29 2637.84,-201.83"/>
<polygon fill="black" stroke="black" points="2640.74,-203.79 2643.23,-193.49 2634.86,-199.99 2640.74,-203.79"/>
</g>
<!-- NamespaceMetrics -->
<g id="node23" class="node">
<title>NamespaceMetrics</title>
<polygon fill="#ffa07a" stroke="black" points="3030.02,-192 2906.74,-192 2906.74,-134.4 3030.02,-134.4 3030.02,-192"/>
<text text-anchor="middle" x="2968.38" y="-175.4" font-family="Times,serif" font-size="14.00">NamespaceMetrics</text>
<text text-anchor="middle" x="2968.38" y="-142.6" font-family="Times,serif" font-size="14.00">In: 6, Out: 7</text>
</g>
<!-- DataExporterTests&#45;&gt;NamespaceMetrics -->
<g id="edge40" class="edge">
<title>DataExporterTests-&gt;NamespaceMetrics</title>
<path fill="none" stroke="black" d="M965.1,-430.35C968.21,-429.47 971.32,-428.67 974.38,-428 1257.38,-365.71 1337.35,-423.73 1625.38,-392 1802.71,-372.47 1843.68,-342.16 2021.38,-326.4 2056.03,-323.33 2614.49,-329.71 2647.38,-318.4 2710.19,-296.8 2706.81,-257.36 2766.38,-228 2817.84,-202.64 2838.35,-210.22 2895.58,-192.71"/>
<polygon fill="black" stroke="black" points="2896.41,-196.12 2904.86,-189.73 2894.27,-189.46 2896.41,-196.12"/>
</g>
<!-- HashUtilsTests -->
<g id="node9" class="node">
<title>HashUtilsTests</title>
<polygon fill="#90ee90" stroke="black" points="579.16,-485.6 477.61,-485.6 477.61,-428 579.16,-428 579.16,-485.6"/>
<text text-anchor="middle" x="528.38" y="-469" font-family="Times,serif" font-size="14.00">HashUtilsTests</text>
<text text-anchor="middle" x="528.38" y="-436.2" font-family="Times,serif" font-size="14.00">In: 2, Out: 1</text>
</g>
<!-- HashUtils -->
<g id="node20" class="node">
<title>HashUtils</title>
<polygon fill="none" stroke="black" points="964.6,-285.6 880.16,-285.6 880.16,-228 964.6,-228 964.6,-285.6"/>
<text text-anchor="middle" x="922.38" y="-269" font-family="Times,serif" font-size="14.00">HashUtils</text>
<text text-anchor="middle" x="922.38" y="-236.2" font-family="Times,serif" font-size="14.00">In: 2, Out: 2</text>
</g>
<!-- HashUtilsTests&#45;&gt;HashUtils -->
<g id="edge46" class="edge">
<title>HashUtilsTests-&gt;HashUtils</title>
<path fill="none" stroke="black" d="M579.49,-430.12C654.46,-392.44 793.57,-322.54 869.52,-284.36"/>
<polygon fill="black" stroke="black" points="871.09,-287.49 878.46,-279.87 867.95,-281.24 871.09,-287.49"/>
</g>
<!-- CodeAnalyzerTests -->
<g id="node10" class="node">
<title>CodeAnalyzerTests</title>
<polygon fill="#90ee90" stroke="black" points="1567.59,-485.6 1441.18,-485.6 1441.18,-428 1567.59,-428 1567.59,-485.6"/>
<text text-anchor="middle" x="1504.38" y="-469" font-family="Times,serif" font-size="14.00">CodeAnalyzerTests</text>
<text text-anchor="middle" x="1504.38" y="-436.2" font-family="Times,serif" font-size="14.00">In: 6, Out: 2</text>
</g>
<!-- CodeAnalyzerTests&#45;&gt;FileUtils -->
<g id="edge47" class="edge">
<title>CodeAnalyzerTests-&gt;FileUtils</title>
<path fill="none" stroke="black" d="M1440.69,-430.11C1437.9,-429.33 1435.13,-428.62 1432.38,-428 1383.26,-416.81 1014.56,-429.01 980.38,-392 955.14,-364.66 977.2,-324.01 1000.28,-294.62"/>
<polygon fill="black" stroke="black" points="1002.84,-297.01 1006.46,-287.06 997.42,-292.58 1002.84,-297.01"/>
</g>
<!-- CodeMetricsAnalyzer -->
<g id="node29" class="node">
<title>CodeMetricsAnalyzer</title>
<polygon fill="#ffa07a" stroke="black" points="2487.19,-392 2347.57,-392 2347.57,-334.4 2487.19,-334.4 2487.19,-392"/>
<text text-anchor="middle" x="2417.38" y="-375.4" font-family="Times,serif" font-size="14.00">CodeMetricsAnalyzer</text>
<text text-anchor="middle" x="2417.38" y="-342.6" font-family="Times,serif" font-size="14.00">In: 2, Out: 5</text>
</g>
<!-- CodeAnalyzerTests&#45;&gt;CodeMetricsAnalyzer -->
<g id="edge48" class="edge">
<title>CodeAnalyzerTests-&gt;CodeMetricsAnalyzer</title>
<path fill="none" stroke="black" d="M1568.07,-430.1C1570.86,-429.33 1573.64,-428.62 1576.38,-428 1613.05,-419.72 2132.11,-383.67 2336,-369.73"/>
<polygon fill="black" stroke="black" points="2335.98,-373.24 2345.71,-369.07 2335.5,-366.25 2335.98,-373.24"/>
</g>
<!-- CoreUtilsTests -->
<g id="node11" class="node">
<title>CoreUtilsTests</title>
<polygon fill="#90ee90" stroke="black" points="329.38,-485.6 229.39,-485.6 229.39,-428 329.38,-428 329.38,-485.6"/>
<text text-anchor="middle" x="279.38" y="-469" font-family="Times,serif" font-size="14.00">CoreUtilsTests</text>
<text text-anchor="middle" x="279.38" y="-436.2" font-family="Times,serif" font-size="14.00">In: 7, Out: 1</text>
</g>
<!-- CoreUtilsTests&#45;&gt;CoreUtils -->
<g id="edge49" class="edge">
<title>CoreUtilsTests-&gt;CoreUtils</title>
<path fill="none" stroke="black" d="M329.79,-429.92C436.84,-374.97 685.96,-247.07 794.86,-191.17"/>
<polygon fill="black" stroke="black" points="796.3,-194.36 803.6,-186.68 793.11,-188.13 796.3,-194.36"/>
</g>
<!-- DependencyGraphGeneratorTests -->
<g id="node12" class="node">
<title>DependencyGraphGeneratorTests</title>
<polygon fill="#90ee90" stroke="black" points="1791.62,-485.6 1585.15,-485.6 1585.15,-428 1791.62,-428 1791.62,-485.6"/>
<text text-anchor="middle" x="1688.38" y="-469" font-family="Times,serif" font-size="14.00">DependencyGraphGeneratorTests</text>
<text text-anchor="middle" x="1688.38" y="-436.2" font-family="Times,serif" font-size="14.00">In: 9, Out: 2</text>
</g>
<!-- DependencyGraphGeneratorTests&#45;&gt;DependencyRelation -->
<g id="edge50" class="edge">
<title>DependencyGraphGeneratorTests-&gt;DependencyRelation</title>
<path fill="none" stroke="black" d="M1787.08,-427.53C1819.7,-417.34 1855.94,-405.09 1888.38,-392 1949.51,-367.34 1957.29,-341.78 2021.38,-326.4 2055.37,-318.25 2618.8,-333.36 2650.38,-318.4 2697.82,-295.94 2689.02,-264.86 2726.38,-228 2736.21,-218.3 2747.39,-208.53 2758.15,-199.63"/>
<polygon fill="black" stroke="black" points="2760.33,-202.37 2765.88,-193.35 2755.92,-196.94 2760.33,-202.37"/>
</g>
<!-- DependencyGraphGenerator -->
<g id="node25" class="node">
<title>DependencyGraphGenerator</title>
<polygon fill="#ffa07a" stroke="black" points="2209.84,-485.6 2032.92,-485.6 2032.92,-428 2209.84,-428 2209.84,-485.6"/>
<text text-anchor="middle" x="2121.38" y="-469" font-family="Times,serif" font-size="14.00">DependencyGraphGenerator</text>
<text text-anchor="middle" x="2121.38" y="-436.2" font-family="Times,serif" font-size="14.00">In: 2, Out: 7</text>
</g>
<!-- DependencyGraphGeneratorTests&#45;&gt;DependencyGraphGenerator -->
<g id="edge51" class="edge">
<title>DependencyGraphGeneratorTests-&gt;DependencyGraphGenerator</title>
<path fill="none" stroke="black" d="M1791.98,-456.8C1868.43,-456.8 1944.87,-456.8 2021.32,-456.8"/>
<polygon fill="black" stroke="black" points="2021.09,-460.3 2031.09,-456.8 2021.09,-453.3 2021.09,-460.3"/>
</g>
<!-- DataExporter&#45;&gt;CoreUtils -->
<g id="edge4" class="edge">
<title>DataExporter-&gt;CoreUtils</title>
<path fill="none" stroke="black" d="M1099.29,-233.2C1094.65,-231.3 1089.96,-229.53 1085.38,-228 1012.53,-203.71 989.83,-214.43 916.38,-192 911.25,-190.43 905.96,-188.64 900.71,-186.74"/>
<polygon fill="black" stroke="black" points="902.04,-183.5 891.45,-183.25 899.58,-190.05 902.04,-183.5"/>
</g>
<!-- CsvExportStrategy -->
<g id="node16" class="node">
<title>CsvExportStrategy</title>
<polygon fill="#ffa07a" stroke="black" points="1047.66,-192 925.11,-192 925.11,-134.4 1047.66,-134.4 1047.66,-192"/>
<text text-anchor="middle" x="986.38" y="-175.4" font-family="Times,serif" font-size="14.00">CsvExportStrategy</text>
<text text-anchor="middle" x="986.38" y="-142.6" font-family="Times,serif" font-size="14.00">In: 1, Out: 7</text>
</g>
<!-- DataExporter&#45;&gt;CsvExportStrategy -->
<g id="edge5" class="edge">
<title>DataExporter-&gt;CsvExportStrategy</title>
<path fill="none" stroke="black" d="M1099.39,-229.31C1082.45,-219.54 1063.01,-208.35 1045.09,-198.02"/>
<polygon fill="black" stroke="black" points="1047.04,-195.11 1036.63,-193.15 1043.55,-201.17 1047.04,-195.11"/>
</g>
<!-- JsonExportStrategy -->
<g id="node17" class="node">
<title>JsonExportStrategy</title>
<polygon fill="#ffa07a" stroke="black" points="1191.21,-192 1065.56,-192 1065.56,-134.4 1191.21,-134.4 1191.21,-192"/>
<text text-anchor="middle" x="1128.38" y="-175.4" font-family="Times,serif" font-size="14.00">JsonExportStrategy</text>
<text text-anchor="middle" x="1128.38" y="-142.6" font-family="Times,serif" font-size="14.00">In: 1, Out: 7</text>
</g>
<!-- DataExporter&#45;&gt;JsonExportStrategy -->
<g id="edge6" class="edge">
<title>DataExporter-&gt;JsonExportStrategy</title>
<path fill="none" stroke="black" d="M1140.19,-227.82C1138.77,-220.17 1137.2,-211.73 1135.69,-203.57"/>
<polygon fill="black" stroke="black" points="1139.14,-203.01 1133.88,-193.81 1132.26,-204.28 1139.14,-203.01"/>
</g>
<!-- DataExporter&#45;&gt;DependencyRelation -->
<g id="edge8" class="edge">
<title>DataExporter-&gt;DependencyRelation</title>
<path fill="none" stroke="black" d="M1191.5,-254.34C1436.19,-246.57 2576.6,-209.71 2726.24,-191.61"/>
<polygon fill="black" stroke="black" points="2726.7,-195.08 2736.07,-190.14 2725.67,-188.15 2726.7,-195.08"/>
</g>
<!-- DataExporter&#45;&gt;DuplicationCode -->
<g id="edge7" class="edge">
<title>DataExporter-&gt;DuplicationCode</title>
<path fill="none" stroke="black" d="M1191.55,-254.54C1422.09,-248.12 2443.22,-218.4 2582.38,-192 2586.98,-191.13 2591.68,-190.05 2596.38,-188.83"/>
<polygon fill="black" stroke="black" points="2597.16,-192.24 2605.84,-186.16 2595.26,-185.5 2597.16,-192.24"/>
</g>
<!-- DataExporter&#45;&gt;NamespaceMetrics -->
<g id="edge10" class="edge">
<title>DataExporter-&gt;NamespaceMetrics</title>
<path fill="none" stroke="black" d="M1191.48,-254.34C1454.03,-245.99 2753.66,-204.3 2895.41,-191.4"/>
<polygon fill="black" stroke="black" points="2895.51,-194.92 2905.01,-190.23 2894.66,-187.97 2895.51,-194.92"/>
</g>
<!-- DataExporter&#45;&gt;DependencyGraphGenerator -->
<g id="edge9" class="edge">
<title>DataExporter-&gt;DependencyGraphGenerator</title>
<path fill="none" stroke="black" d="M1191.36,-257.6C1326.82,-257.76 1721.76,-263.72 1831.38,-326.4 1862.75,-344.33 1849.53,-371.65 1879.38,-392 1921.17,-420.49 1974.99,-436.26 2021.26,-444.99"/>
<polygon fill="black" stroke="black" points="2020.59,-448.43 2031.05,-446.75 2021.82,-441.54 2020.59,-448.43"/>
</g>
<!-- CoreUtils&#45;&gt;CoreUtils -->
<g id="edge11" class="edge">
<title>CoreUtils-&gt;CoreUtils</title>
<path fill="none" stroke="black" d="M889.87,-180.44C900.06,-179.09 907.6,-173.35 907.6,-163.2 907.6,-157.18 904.94,-152.7 900.65,-149.78"/>
<polygon fill="black" stroke="black" points="901.89,-146.51 891.3,-146.47 899.55,-153.1 901.89,-146.51"/>
</g>
<!-- CsvExportStrategy&#45;&gt;CsvHandler -->
<g id="edge22" class="edge">
<title>CsvExportStrategy-&gt;CsvHandler</title>
<path fill="none" stroke="black" d="M965,-134.22C958.61,-125.86 951.51,-116.57 944.75,-107.72"/>
<polygon fill="black" stroke="black" points="947.65,-105.75 938.79,-99.93 942.09,-110 947.65,-105.75"/>
</g>
<!-- JsonExportStrategy&#45;&gt;JsonHandler -->
<g id="edge36" class="edge">
<title>JsonExportStrategy-&gt;JsonHandler</title>
<path fill="none" stroke="black" d="M1111.58,-134.22C1106.72,-126.13 1101.34,-117.15 1096.18,-108.56"/>
<polygon fill="black" stroke="black" points="1099.2,-106.79 1091.05,-100.02 1093.2,-110.4 1099.2,-106.79"/>
</g>
<!-- DependencyRelation&#45;&gt;DependencyRelation -->
<g id="edge3" class="edge">
<title>DependencyRelation-&gt;DependencyRelation</title>
<path fill="none" stroke="black" d="M2871.48,-179.28C2881.95,-176.88 2889.08,-171.52 2889.08,-163.2 2889.08,-158.13 2886.43,-154.16 2882,-151.29"/>
<polygon fill="black" stroke="black" points="2883.47,-148.11 2872.89,-147.67 2880.89,-154.62 2883.47,-148.11"/>
</g>
<!-- AnalysisResult -->
<g id="node24" class="node">
<title>AnalysisResult</title>
<polygon fill="#ffa07a" stroke="black" points="3030.77,-285.6 2929.99,-285.6 2929.99,-228 3030.77,-228 3030.77,-285.6"/>
<text text-anchor="middle" x="2980.38" y="-269" font-family="Times,serif" font-size="14.00">AnalysisResult</text>
<text text-anchor="middle" x="2980.38" y="-236.2" font-family="Times,serif" font-size="14.00">In: 2, Out: 7</text>
</g>
<!-- AnalysisResult&#45;&gt;DependencyRelation -->
<g id="edge25" class="edge">
<title>AnalysisResult-&gt;DependencyRelation</title>
<path fill="none" stroke="black" d="M2929.95,-229.55C2910.83,-219.6 2888.8,-208.14 2868.58,-197.61"/>
<polygon fill="black" stroke="black" points="2870.34,-194.58 2859.86,-193.07 2867.11,-200.79 2870.34,-194.58"/>
</g>
<!-- AnalysisResult&#45;&gt;DuplicationCode -->
<g id="edge24" class="edge">
<title>AnalysisResult-&gt;DuplicationCode</title>
<path fill="none" stroke="black" d="M2929.51,-245.37C2880.53,-234.79 2804.35,-216.91 2730.43,-192.5"/>
<polygon fill="black" stroke="black" points="2731.57,-189.2 2720.98,-189.34 2729.35,-195.83 2731.57,-189.2"/>
</g>
<!-- AnalysisResult&#45;&gt;NamespaceMetrics -->
<g id="edge23" class="edge">
<title>AnalysisResult-&gt;NamespaceMetrics</title>
<path fill="none" stroke="black" d="M2976.72,-227.82C2975.71,-220.17 2974.61,-211.73 2973.54,-203.57"/>
<polygon fill="black" stroke="black" points="2977.03,-203.29 2972.26,-193.83 2970.09,-204.2 2977.03,-203.29"/>
</g>
<!-- DependencyGraphGenerator&#45;&gt;DependencyRelation -->
<g id="edge52" class="edge">
<title>DependencyGraphGenerator-&gt;DependencyRelation</title>
<path fill="none" stroke="black" d="M2210.03,-442.68C2378.53,-416.94 2731.77,-358.81 2770.38,-318.4 2799.57,-287.86 2805.94,-238.22 2806.38,-203.54"/>
<polygon fill="black" stroke="black" points="2809.88,-203.9 2806.34,-193.91 2802.88,-203.93 2809.88,-203.9"/>
</g>
<!-- SolutionAnalyzer -->
<g id="node26" class="node">
<title>SolutionAnalyzer</title>
<polygon fill="#ffa07a" stroke="black" points="2474.76,-485.6 2360,-485.6 2360,-428 2474.76,-428 2474.76,-485.6"/>
<text text-anchor="middle" x="2417.38" y="-469" font-family="Times,serif" font-size="14.00">SolutionAnalyzer</text>
<text text-anchor="middle" x="2417.38" y="-436.2" font-family="Times,serif" font-size="14.00">In: 2, Out: 7</text>
</g>
<!-- SolutionAnalyzer&#45;&gt;DataExporter -->
<g id="edge33" class="edge">
<title>SolutionAnalyzer-&gt;DataExporter</title>
<path fill="none" stroke="black" d="M2359.52,-447.41C2319.83,-441.73 2265.95,-434.17 2218.38,-428 2151.58,-419.34 1975.54,-426 1917.38,-392 1886.2,-373.77 1900.79,-344.25 1869.38,-326.4 1755.85,-261.88 1353.06,-256.84 1202.62,-257.28"/>
<polygon fill="black" stroke="black" points="1202.88,-253.78 1192.9,-257.32 1202.91,-260.78 1202.88,-253.78"/>
</g>
<!-- SolutionAnalyzer&#45;&gt;CoreUtils -->
<g id="edge30" class="edge">
<title>SolutionAnalyzer-&gt;CoreUtils</title>
<path fill="none" stroke="black" d="M2359.73,-438.96C2265.71,-411.99 2073.22,-358.88 1907.38,-326.4 1596.05,-265.43 1514.87,-269.82 1200.38,-228 1074.26,-211.23 1039.52,-224.04 916.38,-192 911.19,-190.65 905.86,-189 900.58,-187.19"/>
<polygon fill="black" stroke="black" points="901.89,-183.95 891.29,-183.81 899.49,-190.52 901.89,-183.95"/>
</g>
<!-- SolutionAnalyzer&#45;&gt;NamespaceMetrics -->
<g id="edge34" class="edge">
<title>SolutionAnalyzer-&gt;NamespaceMetrics</title>
<path fill="none" stroke="black" d="M2475.09,-455.54C2585.25,-453.84 2819.77,-444.03 2878.38,-392 2934.74,-341.98 2888.9,-295.99 2921.38,-228 2925.73,-218.89 2931.45,-209.76 2937.4,-201.37"/>
<polygon fill="black" stroke="black" points="2940.11,-203.59 2943.24,-193.47 2934.48,-199.43 2940.11,-203.59"/>
</g>
<!-- SolutionAnalyzer&#45;&gt;AnalysisResult -->
<g id="edge31" class="edge">
<title>SolutionAnalyzer-&gt;AnalysisResult</title>
<path fill="none" stroke="black" d="M2474.9,-455.21C2590.72,-452.95 2846.96,-442.25 2916.38,-392 2947.48,-369.49 2964.05,-327.84 2972.47,-296.88"/>
<polygon fill="black" stroke="black" points="2975.79,-298.04 2974.85,-287.49 2969,-296.32 2975.79,-298.04"/>
</g>
<!-- SolutionAnalyzer&#45;&gt;CodeMetricsAnalyzer -->
<g id="edge32" class="edge">
<title>SolutionAnalyzer-&gt;CodeMetricsAnalyzer</title>
<path fill="none" stroke="black" d="M2417.38,-427.82C2417.38,-420.17 2417.38,-411.73 2417.38,-403.57"/>
<polygon fill="black" stroke="black" points="2420.88,-403.84 2417.38,-393.84 2413.88,-403.84 2420.88,-403.84"/>
</g>
<!-- ComplexityWalker -->
<g id="node30" class="node">
<title>ComplexityWalker</title>
<polygon fill="none" stroke="black" points="2197.03,-192 2073.73,-192 2073.73,-134.4 2197.03,-134.4 2197.03,-192"/>
<text text-anchor="middle" x="2135.38" y="-175.4" font-family="Times,serif" font-size="14.00">ComplexityWalker</text>
<text text-anchor="middle" x="2135.38" y="-142.6" font-family="Times,serif" font-size="14.00">In: 1, Out: 1</text>
</g>
<!-- CyclomaticComplexityCalculator&#45;&gt;ComplexityWalker -->
<g id="edge35" class="edge">
<title>CyclomaticComplexityCalculator-&gt;ComplexityWalker</title>
<path fill="none" stroke="black" d="M2135.38,-227.82C2135.38,-220.17 2135.38,-211.73 2135.38,-203.57"/>
<polygon fill="black" stroke="black" points="2138.88,-203.84 2135.38,-193.84 2131.88,-203.84 2138.88,-203.84"/>
</g>
<!-- CodeDuplicationChecker&#45;&gt;HashUtils -->
<g id="edge29" class="edge">
<title>CodeDuplicationChecker-&gt;HashUtils</title>
<path fill="none" stroke="black" d="M2305.18,-285.87C2287.14,-300.82 2262.82,-317 2237.38,-322.4 2220.47,-325.99 1009.3,-325.99 992.38,-322.4 975.31,-318.78 960.48,-307.12 948.92,-294.62"/>
<polygon fill="black" stroke="black" points="951.61,-292.38 942.44,-287.07 946.3,-296.94 951.61,-292.38"/>
</g>
<!-- CodeDuplicationChecker&#45;&gt;DuplicationCode -->
<g id="edge28" class="edge">
<title>CodeDuplicationChecker-&gt;DuplicationCode</title>
<path fill="none" stroke="black" d="M2414.92,-230.35C2417.77,-229.54 2420.6,-228.75 2423.38,-228 2493.32,-209.07 2512.68,-211.79 2582.38,-192 2587.1,-190.66 2591.94,-189.21 2596.8,-187.69"/>
<polygon fill="black" stroke="black" points="2597.52,-191.13 2605.98,-184.75 2595.39,-184.47 2597.52,-191.13"/>
</g>
<!-- CodeMetricsAnalyzer&#45;&gt;FileUtils -->
<g id="edge56" class="edge">
<title>CodeMetricsAnalyzer-&gt;FileUtils</title>
<path fill="none" stroke="black" d="M2347.08,-356.76C2237.14,-348.51 2017.79,-333.1 1831.38,-326.4 1810.81,-325.66 1109.2,-326.75 1090.38,-318.4 1078.65,-313.19 1068.28,-304.21 1059.74,-294.73"/>
<polygon fill="black" stroke="black" points="1062.5,-292.58 1053.4,-287.14 1057.13,-297.06 1062.5,-292.58"/>
</g>
<!-- CodeMetricsAnalyzer&#45;&gt;DependencyRelation -->
<g id="edge55" class="edge">
<title>CodeMetricsAnalyzer-&gt;DependencyRelation</title>
<path fill="none" stroke="black" d="M2487.64,-359.68C2566.78,-355.58 2689.22,-345.02 2726.38,-318.4 2764.56,-291.05 2785.22,-239.48 2795.5,-203.54"/>
<polygon fill="black" stroke="black" points="2798.87,-204.5 2798.09,-193.94 2792.11,-202.68 2798.87,-204.5"/>
</g>
<!-- CodeMetricsAnalyzer&#45;&gt;DuplicationCode -->
<g id="edge54" class="edge">
<title>CodeMetricsAnalyzer-&gt;DuplicationCode</title>
<path fill="none" stroke="black" d="M2487.58,-353.79C2535.72,-346.69 2594.06,-335 2612.38,-318.4 2644.77,-289.06 2656.63,-238.73 2660.95,-203.58"/>
<polygon fill="black" stroke="black" points="2664.42,-204.11 2661.99,-193.79 2657.46,-203.37 2664.42,-204.11"/>
</g>
<!-- CodeMetricsAnalyzer&#45;&gt;NamespaceMetrics -->
<g id="edge53" class="edge">
<title>CodeMetricsAnalyzer-&gt;NamespaceMetrics</title>
<path fill="none" stroke="black" d="M2487.55,-357.92C2575.5,-351.8 2720.74,-338.95 2770.38,-318.4 2774.81,-316.57 2866.82,-244.3 2923.83,-199.37"/>
<polygon fill="black" stroke="black" points="2925.79,-202.28 2931.48,-193.34 2921.46,-196.78 2925.79,-202.28"/>
</g>
<!-- CodeMetricsAnalyzer&#45;&gt;CyclomaticComplexityCalculator -->
<g id="edge59" class="edge">
<title>CodeMetricsAnalyzer-&gt;CyclomaticComplexityCalculator</title>
<path fill="none" stroke="black" d="M2347.1,-348.15C2315.99,-340.9 2279.3,-330.93 2247.38,-318.4 2228.63,-311.04 2209.04,-301.24 2191.58,-291.67"/>
<polygon fill="black" stroke="black" points="2193.33,-288.64 2182.89,-286.82 2189.92,-294.75 2193.33,-288.64"/>
</g>
<!-- CodeMetricsAnalyzer&#45;&gt;CodeDuplicationChecker -->
<g id="edge57" class="edge">
<title>CodeMetricsAnalyzer-&gt;CodeDuplicationChecker</title>
<path fill="none" stroke="black" d="M2395.19,-333.95C2385.8,-321.99 2374.73,-307.9 2364.69,-295.11"/>
<polygon fill="black" stroke="black" points="2367.46,-292.97 2358.53,-287.27 2361.95,-297.29 2367.46,-292.97"/>
</g>
<!-- DependencyAnalyzer -->
<g id="node31" class="node">
<title>DependencyAnalyzer</title>
<polygon fill="#ffa07a" stroke="black" points="2570.02,-285.6 2432.75,-285.6 2432.75,-228 2570.02,-228 2570.02,-285.6"/>
<text text-anchor="middle" x="2501.38" y="-269" font-family="Times,serif" font-size="14.00">DependencyAnalyzer</text>
<text text-anchor="middle" x="2501.38" y="-236.2" font-family="Times,serif" font-size="14.00">In: 1, Out: 7</text>
</g>
<!-- CodeMetricsAnalyzer&#45;&gt;DependencyAnalyzer -->
<g id="edge58" class="edge">
<title>CodeMetricsAnalyzer-&gt;DependencyAnalyzer</title>
<path fill="none" stroke="black" d="M2440.11,-333.95C2449.83,-321.88 2461.29,-307.63 2471.66,-294.74"/>
<polygon fill="black" stroke="black" points="2474.14,-297.24 2477.68,-287.25 2468.69,-292.85 2474.14,-297.24"/>
</g>
<!-- DependencyAnalyzer&#45;&gt;FileUtils -->
<g id="edge61" class="edge">
<title>DependencyAnalyzer-&gt;FileUtils</title>
<path fill="none" stroke="black" d="M2475.65,-285.83C2459.82,-300.97 2438.07,-317.37 2414.38,-322.4 2396.52,-326.19 1117.25,-326.19 1099.38,-322.4 1082.94,-318.91 1069.07,-307.28 1058.42,-294.77"/>
<polygon fill="black" stroke="black" points="1061.43,-292.94 1052.5,-287.24 1055.93,-297.26 1061.43,-292.94"/>
</g>
<!-- DependencyAnalyzer&#45;&gt;DependencyRelation -->
<g id="edge60" class="edge">
<title>DependencyAnalyzer-&gt;DependencyRelation</title>
<path fill="none" stroke="black" d="M2570.38,-235.2C2578.79,-232.74 2587.28,-230.3 2595.38,-228 2650.97,-212.26 2668.1,-210.68 2726.39,-192.53"/>
<polygon fill="black" stroke="black" points="2727.42,-195.87 2735.91,-189.53 2725.32,-189.2 2727.42,-195.87"/>
</g>
<!-- SolutionAnalyzerTest -->
<g id="node32" class="node">
<title>SolutionAnalyzerTest</title>
<polygon fill="#ffa07a" stroke="black" points="3049.81,-592 2910.95,-592 2910.95,-534.4 3049.81,-534.4 3049.81,-592"/>
<text text-anchor="middle" x="2980.38" y="-575.4" font-family="Times,serif" font-size="14.00">SolutionAnalyzerTest</text>
<text text-anchor="middle" x="2980.38" y="-542.6" font-family="Times,serif" font-size="14.00">In: 6, Out: 7</text>
</g>
<!-- SolutionAnalyzerTest&#45;&gt;CoreUtils -->
<g id="edge21" class="edge">
<title>SolutionAnalyzerTest-&gt;CoreUtils</title>
<path fill="none" stroke="black" d="M2910.67,-561.76C2483.91,-558.97 241.74,-543.15 217.38,-518.4 157.52,-457.58 166.39,-394.82 217.38,-326.4 287.05,-232.93 654.06,-184.73 793.54,-169.57"/>
<polygon fill="black" stroke="black" points="793.67,-173.08 803.24,-168.53 792.93,-166.12 793.67,-173.08"/>
</g>
<!-- SolutionAnalyzerTest&#45;&gt;FileUtils -->
<g id="edge15" class="edge">
<title>SolutionAnalyzerTest-&gt;FileUtils</title>
<path fill="none" stroke="black" d="M2910.75,-561.17C2704.37,-557.81 2105.09,-545.8 2021.38,-518.4 1924.99,-486.85 1896.22,-469.99 1831.38,-392 1811.12,-367.62 1829.74,-344.02 1803.38,-326.4 1786.92,-315.39 1108.48,-326.44 1090.38,-318.4 1078.66,-313.19 1068.28,-304.21 1059.74,-294.73"/>
<polygon fill="black" stroke="black" points="1062.5,-292.57 1053.41,-287.14 1057.13,-297.06 1062.5,-292.57"/>
</g>
<!-- SolutionAnalyzerTest&#45;&gt;DependencyRelation -->
<g id="edge20" class="edge">
<title>SolutionAnalyzerTest-&gt;DependencyRelation</title>
<path fill="none" stroke="black" d="M3050.08,-539.98C3058.92,-534.31 3066.81,-527.22 3072.38,-518.4 3106.84,-463.83 3113.16,-278.02 3072.38,-228 3022.21,-166.45 2974.39,-211.39 2897.38,-192 2892.52,-190.77 2887.53,-189.46 2882.5,-188.09"/>
<polygon fill="black" stroke="black" points="2883.53,-184.74 2872.95,-185.43 2881.65,-191.48 2883.53,-184.74"/>
</g>
<!-- SolutionAnalyzerTest&#45;&gt;DuplicationCode -->
<g id="edge19" class="edge">
<title>SolutionAnalyzerTest-&gt;DuplicationCode</title>
<path fill="none" stroke="black" d="M2990.88,-534.12C3016.95,-462.1 3079.75,-273.31 3039.38,-228 2995.23,-178.44 2813.43,-206.94 2730.64,-191.83"/>
<polygon fill="black" stroke="black" points="2731.4,-188.41 2720.88,-189.66 2729.88,-195.25 2731.4,-188.41"/>
</g>
<!-- SolutionAnalyzerTest&#45;&gt;NamespaceMetrics -->
<g id="edge18" class="edge">
<title>SolutionAnalyzerTest-&gt;NamespaceMetrics</title>
<path fill="none" stroke="black" d="M3050.21,-554.96C3073.15,-548.88 3096.35,-537.94 3110.38,-518.4 3185.68,-413.57 3180.49,-336.36 3110.38,-228 3094.77,-203.87 3067.62,-188.78 3041.22,-179.38"/>
<polygon fill="black" stroke="black" points="3042.41,-176.08 3031.82,-176.28 3040.22,-182.73 3042.41,-176.08"/>
</g>
<!-- SolutionAnalyzerTest&#45;&gt;AnalysisResult -->
<g id="edge17" class="edge">
<title>SolutionAnalyzerTest-&gt;AnalysisResult</title>
<path fill="none" stroke="black" d="M2980.38,-534.11C2980.38,-479.63 2980.38,-359.51 2980.38,-297.13"/>
<polygon fill="black" stroke="black" points="2983.88,-297.34 2980.38,-287.34 2976.88,-297.34 2983.88,-297.34"/>
</g>
<!-- SolutionAnalyzerTest&#45;&gt;SolutionAnalyzer -->
<g id="edge16" class="edge">
<title>SolutionAnalyzerTest-&gt;SolutionAnalyzer</title>
<path fill="none" stroke="black" d="M2910.5,-549.24C2801.85,-529.09 2593.73,-490.5 2485.91,-470.51"/>
<polygon fill="black" stroke="black" points="2486.81,-467.12 2476.34,-468.73 2485.54,-474 2486.81,-467.12"/>
</g>
<!-- Program -->
<g id="node33" class="node">
<title>Program</title>
<polygon fill="#90ee90" stroke="black" points="243.6,-592 159.16,-592 159.16,-534.4 243.6,-534.4 243.6,-592"/>
<text text-anchor="middle" x="201.38" y="-575.4" font-family="Times,serif" font-size="14.00">Program</text>
<text text-anchor="middle" x="201.38" y="-542.6" font-family="Times,serif" font-size="14.00">In: 7, Out: 3</text>
</g>
<!-- Program&#45;&gt;CoreUtils -->
<g id="edge43" class="edge">
<title>Program-&gt;CoreUtils</title>
<path fill="none" stroke="black" d="M158.77,-556.72C115.27,-550.15 52.1,-537.57 37.38,-518.4 -47.07,-408.43 23.77,-282.22 151.38,-228 266.93,-178.91 650.44,-167.49 793.21,-164.92"/>
<polygon fill="black" stroke="black" points="793.22,-168.42 803.16,-164.75 793.1,-161.42 793.22,-168.42"/>
</g>
<!-- Program&#45;&gt;FileUtils -->
<g id="edge44" class="edge">
<title>Program-&gt;FileUtils</title>
<path fill="none" stroke="black" d="M192.72,-533.94C179.34,-483.89 160.7,-379.93 217.38,-326.4 232.65,-311.98 954.01,-326.51 973.38,-318.4 985.84,-313.19 997.12,-304.08 1006.49,-294.5"/>
<polygon fill="black" stroke="black" points="1009.04,-296.9 1013.19,-287.15 1003.86,-292.18 1009.04,-296.9"/>
</g>
<!-- Program&#45;&gt;SolutionAnalyzer -->
<g id="edge45" class="edge">
<title>Program-&gt;SolutionAnalyzer</title>
<path fill="none" stroke="black" d="M243.73,-561.98C516.17,-560.44 2017.25,-550.58 2218.38,-518.4 2262.88,-511.28 2311.27,-496.71 2349.19,-483.63"/>
<polygon fill="black" stroke="black" points="2349.89,-487.1 2358.17,-480.49 2347.58,-480.49 2349.89,-487.1"/>
</g>
</g>
</svg>