<svg xmlns="http://www.w3.org/2000/svg" xmlns:xlink="http://www.w3.org/1999/xlink" width="4016pt" height="784pt" viewBox="0.00 0.00 4015.54 783.95">
<g id="graph0" class="graph" transform="scale(1 1) rotate(0) translate(4 779.95)">
<title>DependencyGraph</title>
<polygon fill="white" stroke="none" points="-4,4 -4,-779.95 4011.54,-779.95 4011.54,4 -4,4"/>
<text text-anchor="middle" x="2003.77" y="-8.2" font-family="Times,serif" font-size="14.00">DependencyGraph</text>
<g id="clust1" class="cluster">
<title>cluster_CodeLineCounter_Tests</title>
<polygon fill="none" stroke="black" stroke-dasharray="5,2" points="232.02,-397.98 232.02,-637.69 2390.02,-637.69 2390.02,-397.98 232.02,-397.98"/>
<text text-anchor="middle" x="1311.02" y="-621.09" font-family="Times,serif" font-size="14.00">CodeLineCounter.Tests</text>
</g>
<g id="clust2" class="cluster">
<title>cluster_CodeLineCounter_Utils</title>
<polygon fill="none" stroke="black" stroke-dasharray="5,2" points="1032.02,-32.8 1032.02,-389.98 1573.02,-389.98 1573.02,-32.8 1032.02,-32.8"/>
<text text-anchor="middle" x="1302.52" y="-373.38" font-family="Times,serif" font-size="14.00">CodeLineCounter.Utils</text>
</g>
<g id="clust3" class="cluster">
<title>cluster_CodeLineCounter_Models</title>
<polygon fill="none" stroke="black" stroke-dasharray="5,2" points="3384.02,-150.26 3384.02,-389.98 3975.02,-389.98 3975.02,-150.26 3384.02,-150.26"/>
<text text-anchor="middle" x="3679.52" y="-373.38" font-family="Times,serif" font-size="14.00">CodeLineCounter.Models</text>
</g>
<g id="clust4" class="cluster">
<title>cluster_CodeLineCounter_Services</title>
<polygon fill="none" stroke="black" stroke-dasharray="5,2" points="2616.02,-150.26 2616.02,-637.69 3376.02,-637.69 3376.02,-150.26 2616.02,-150.26"/>
<text text-anchor="middle" x="2996.02" y="-621.09" font-family="Times,serif" font-size="14.00">CodeLineCounter.Services</text>
</g>
<g id="clust5" class="cluster">
<title>cluster_CodeLineCounter_Tests_Services</title>
<polygon fill="none" stroke="black" stroke-dasharray="5,2" points="3693.02,-645.69 3693.02,-767.95 3905.02,-767.95 3905.02,-645.69 3693.02,-645.69"/>
<text text-anchor="middle" x="3799.02" y="-751.35" font-family="Times,serif" font-size="14.00">CodeLineCounter.Tests.Services</text>
</g>
<g id="clust6" class="cluster">
<title>cluster_CodeLineCounter</title>
<polygon fill="none" stroke="black" stroke-dasharray="5,2" points="144.02,-645.69 144.02,-767.95 280.02,-767.95 280.02,-645.69 144.02,-645.69"/>
<text text-anchor="middle" x="212.02" y="-751.35" font-family="Times,serif" font-size="14.00">CodeLineCounter</text>
</g>
<!-- CsvHandlerTests -->
<g id="node1" class="node">
<title>CsvHandlerTests</title>
<ellipse fill="#fa8072" stroke="black" stroke-width="2" cx="479.02" cy="-564.16" rx="79.5" ry="40.73"/>
<text text-anchor="middle" x="479.02" y="-576.36" font-family="Times,serif" font-size="14.00">CsvHandlerTests</text>
<text text-anchor="middle" x="479.02" y="-543.56" font-family="Times,serif" font-size="14.00">In: 1, Out: 2</text>
</g>
<!-- TestRecord -->
<g id="node2" class="node">
<title>TestRecord</title>
<ellipse fill="#fa8072" stroke="black" stroke-width="2" cx="1302.02" cy="-446.71" rx="59.71" ry="40.73"/>
<text text-anchor="middle" x="1302.02" y="-458.91" font-family="Times,serif" font-size="14.00">TestRecord</text>
<text text-anchor="middle" x="1302.02" y="-426.11" font-family="Times,serif" font-size="14.00">In: 1, Out: 2</text>
</g>
<!-- CsvHandlerTests&#45;&gt;TestRecord -->
<g id="edge1" class="edge">
<title>CsvHandlerTests-&gt;TestRecord</title>
<path fill="none" stroke="black" stroke-width="2" d="M535.31,-534.56C545.65,-530.23 556.5,-526.27 567.02,-523.43 804.11,-459.51 1097.58,-448.84 1230.56,-447.53"/>
<polygon fill="black" stroke="black" stroke-width="2" points="1228.78,-451.04 1238.75,-447.46 1228.72,-444.04 1228.78,-451.04"/>
</g>
<!-- CsvHandler -->
<g id="node13" class="node">
<title>CsvHandler</title>
<ellipse fill="none" stroke="black" stroke-width="2" cx="1191.02" cy="-81.53" rx="59.71" ry="40.73"/>
<text text-anchor="middle" x="1191.02" y="-93.73" font-family="Times,serif" font-size="14.00">CsvHandler</text>
<text text-anchor="middle" x="1191.02" y="-60.93" font-family="Times,serif" font-size="14.00">In: 2, Out: 2</text>
</g>
<!-- CsvHandlerTests&#45;&gt;CsvHandler -->
<g id="edge2" class="edge">
<title>CsvHandlerTests-&gt;CsvHandler</title>
<path fill="none" stroke="black" stroke-width="2" d="M509.71,-525.73C578.2,-444.67 752.31,-252.07 940.02,-150.26 996.76,-119.48 1068.43,-101.96 1120.65,-92.48"/>
<polygon fill="black" stroke="black" stroke-width="2" points="1119.59,-96.22 1128.84,-91.04 1118.38,-89.32 1119.59,-96.22"/>
</g>
<!-- FileUtilsTests -->
<g id="node3" class="node">
<title>FileUtilsTests</title>
<ellipse fill="#3cb371" stroke="black" stroke-width="2" cx="987.02" cy="-564.16" rx="66.86" ry="40.73"/>
<text text-anchor="middle" x="987.02" y="-576.36" font-family="Times,serif" font-size="14.00">FileUtilsTests</text>
<text text-anchor="middle" x="987.02" y="-543.56" font-family="Times,serif" font-size="14.00">In: 6, Out: 1</text>
</g>
<!-- FileUtils -->
<g id="node18" class="node">
<title>FileUtils</title>
<ellipse fill="#3cb371" stroke="black" stroke-width="2" cx="1349.02" cy="-316.45" rx="59.71" ry="40.73"/>
<text text-anchor="middle" x="1349.02" y="-328.65" font-family="Times,serif" font-size="14.00">FileUtils</text>
<text text-anchor="middle" x="1349.02" y="-295.85" font-family="Times,serif" font-size="14.00">In: 6, Out: 1</text>
</g>
<!-- FileUtilsTests&#45;&gt;FileUtils -->
<g id="edge12" class="edge">
<title>FileUtilsTests-&gt;FileUtils</title>
<path fill="none" stroke="black" stroke-width="2" d="M1013.75,-525.97C1044.51,-486.45 1098.99,-425.9 1162.02,-397.98 1204,-379.38 1222.64,-407.64 1265.02,-389.98 1281.51,-383.11 1297.07,-371.7 1310.21,-359.95"/>
<polygon fill="black" stroke="black" stroke-width="2" points="1311.35,-363.67 1316.27,-354.28 1306.58,-358.55 1311.35,-363.67"/>
</g>
<!-- JsonHandlerTests -->
<g id="node4" class="node">
<title>JsonHandlerTests</title>
<ellipse fill="none" stroke="black" stroke-width="2" cx="820.02" cy="-564.16" rx="81.7" ry="40.73"/>
<text text-anchor="middle" x="820.02" y="-576.36" font-family="Times,serif" font-size="14.00">JsonHandlerTests</text>
<text text-anchor="middle" x="820.02" y="-543.56" font-family="Times,serif" font-size="14.00">In: 2, Out: 2</text>
</g>
<!-- TestClass -->
<g id="node5" class="node">
<title>TestClass</title>
<ellipse fill="none" stroke="black" stroke-width="2" cx="1439.02" cy="-446.71" rx="59.71" ry="40.73"/>
<text text-anchor="middle" x="1439.02" y="-458.91" font-family="Times,serif" font-size="14.00">TestClass</text>
<text text-anchor="middle" x="1439.02" y="-426.11" font-family="Times,serif" font-size="14.00">In: 2, Out: 2</text>
</g>
<!-- JsonHandlerTests&#45;&gt;TestClass -->
<g id="edge13" class="edge">
<title>JsonHandlerTests-&gt;TestClass</title>
<path fill="none" stroke="black" stroke-width="2" d="M877.75,-534.55C888.59,-530.17 899.98,-526.19 911.02,-523.43 1109.97,-473.72 1175.32,-548.71 1371.02,-487.43 1376.13,-485.83 1381.28,-483.79 1386.32,-481.48"/>
<polygon fill="black" stroke="black" stroke-width="2" points="1386.38,-485.36 1393.77,-477.77 1383.26,-479.09 1386.38,-485.36"/>
</g>
<!-- JsonHandler -->
<g id="node19" class="node">
<title>JsonHandler</title>
<ellipse fill="none" stroke="black" stroke-width="2" cx="1403.02" cy="-81.53" rx="60.8" ry="40.73"/>
<text text-anchor="middle" x="1403.02" y="-93.73" font-family="Times,serif" font-size="14.00">JsonHandler</text>
<text text-anchor="middle" x="1403.02" y="-60.93" font-family="Times,serif" font-size="14.00">In: 2, Out: 2</text>
</g>
<!-- JsonHandlerTests&#45;&gt;JsonHandler -->
<g id="edge14" class="edge">
<title>JsonHandlerTests-&gt;JsonHandler</title>
<path fill="none" stroke="black" stroke-width="2" d="M827.56,-522.92C845.74,-438.14 900.54,-241.46 1031.02,-150.26 1073.04,-120.89 1209.74,-132.26 1260.02,-122.26 1285.44,-117.2 1312.97,-109.99 1337.01,-103.09"/>
<polygon fill="black" stroke="black" stroke-width="2" points="1336.27,-106.95 1344.89,-100.79 1334.31,-100.23 1336.27,-106.95"/>
</g>
<!-- CyclomaticComplexityCalculatorTests -->
<g id="node6" class="node">
<title>CyclomaticComplexityCalculatorTests</title>
<ellipse fill="#3cb371" stroke="black" stroke-width="2" cx="1426.02" cy="-564.16" rx="165.82" ry="40.73"/>
<text text-anchor="middle" x="1426.02" y="-576.36" font-family="Times,serif" font-size="14.00">CyclomaticComplexityCalculatorTests</text>
<text text-anchor="middle" x="1426.02" y="-543.56" font-family="Times,serif" font-size="14.00">In: 2, Out: 1</text>
</g>
<!-- CyclomaticComplexityCalculator -->
<g id="node27" class="node">
<title>CyclomaticComplexityCalculator</title>
<ellipse fill="#3cb371" stroke="black" stroke-width="2" cx="2769.02" cy="-316.45" rx="144.93" ry="40.73"/>
<text text-anchor="middle" x="2769.02" y="-328.65" font-family="Times,serif" font-size="14.00">CyclomaticComplexityCalculator</text>
<text text-anchor="middle" x="2769.02" y="-295.85" font-family="Times,serif" font-size="14.00">In: 2, Out: 1</text>
</g>
<!-- CyclomaticComplexityCalculatorTests&#45;&gt;CyclomaticComplexityCalculator -->
<g id="edge26" class="edge">
<title>CyclomaticComplexityCalculatorTests-&gt;CyclomaticComplexityCalculator</title>
<path fill="none" stroke="black" stroke-width="2" d="M1545.88,-535.14C1564.32,-531.07 1583.15,-527.04 1601.02,-523.43 1972.52,-448.55 2413.56,-374.87 2632.13,-339.37"/>
<polygon fill="black" stroke="black" stroke-width="2" points="2631.03,-343.09 2640.34,-338.04 2629.91,-336.18 2631.03,-343.09"/>
</g>
<!-- CodeDuplicationCheckerTests -->
<g id="node7" class="node">
<title>CodeDuplicationCheckerTests</title>
<ellipse fill="#3cb371" stroke="black" stroke-width="2" cx="1743.02" cy="-564.16" rx="132.82" ry="40.73"/>
<text text-anchor="middle" x="1743.02" y="-576.36" font-family="Times,serif" font-size="14.00">CodeDuplicationCheckerTests</text>
<text text-anchor="middle" x="1743.02" y="-543.56" font-family="Times,serif" font-size="14.00">In: 2, Out: 1</text>
</g>
<!-- CodeDuplicationChecker -->
<g id="node28" class="node">
<title>CodeDuplicationChecker</title>
<ellipse fill="#3cb371" stroke="black" stroke-width="2" cx="3044.02" cy="-316.45" rx="111.93" ry="40.73"/>
<text text-anchor="middle" x="3044.02" y="-328.65" font-family="Times,serif" font-size="14.00">CodeDuplicationChecker</text>
<text text-anchor="middle" x="3044.02" y="-295.85" font-family="Times,serif" font-size="14.00">In: 2, Out: 1</text>
</g>
<!-- CodeDuplicationCheckerTests&#45;&gt;CodeDuplicationChecker -->
<g id="edge27" class="edge">
<title>CodeDuplicationCheckerTests-&gt;CodeDuplicationChecker</title>
<path fill="none" stroke="black" stroke-width="2" d="M1836.38,-534.27C1852.48,-530.08 1869.14,-526.25 1885.02,-523.43 2087.38,-487.58 2145.41,-532.03 2346.02,-487.43 2456.33,-462.91 2473.08,-419.49 2584.02,-397.98 2621.01,-390.8 2886.83,-400.45 2923.02,-389.98 2945.16,-383.57 2967.37,-372.07 2986.61,-360.09"/>
<polygon fill="black" stroke="black" stroke-width="2" points="2987.02,-363.99 2993.55,-355.64 2983.24,-358.1 2987.02,-363.99"/>
</g>
<!-- DataExporterTests -->
<g id="node8" class="node">
<title>DataExporterTests</title>
<ellipse fill="#3cb371" stroke="black" stroke-width="2" cx="1157.02" cy="-564.16" rx="85.53" ry="40.73"/>
<text text-anchor="middle" x="1157.02" y="-576.36" font-family="Times,serif" font-size="14.00">DataExporterTests</text>
<text text-anchor="middle" x="1157.02" y="-543.56" font-family="Times,serif" font-size="14.00">In: 7, Out: 6</text>
</g>
<!-- DataExporterTests&#45;&gt;TestClass -->
<g id="edge38" class="edge">
<title>DataExporterTests-&gt;TestClass</title>
<path fill="none" stroke="black" stroke-width="2" d="M1219.85,-535.5C1230.19,-531.27 1240.85,-527.1 1251.02,-523.43 1303.41,-504.57 1319.96,-509.64 1371.02,-487.43 1375.66,-485.42 1380.38,-483.15 1385.06,-480.76"/>
<polygon fill="black" stroke="black" stroke-width="2" points="1385.35,-484.57 1392.52,-476.77 1382.05,-478.4 1385.35,-484.57"/>
</g>
<!-- DataExporter -->
<g id="node14" class="node">
<title>DataExporter</title>
<ellipse fill="none" stroke="black" stroke-width="2" cx="1500.02" cy="-316.45" rx="64.63" ry="40.73"/>
<text text-anchor="middle" x="1500.02" y="-328.65" font-family="Times,serif" font-size="14.00">DataExporter</text>
<text text-anchor="middle" x="1500.02" y="-295.85" font-family="Times,serif" font-size="14.00">In: 7, Out: 7</text>
</g>
<!-- DataExporterTests&#45;&gt;DataExporter -->
<g id="edge39" class="edge">
<title>DataExporterTests-&gt;DataExporter</title>
<path fill="none" stroke="black" stroke-width="2" d="M1163.38,-522.78C1171.89,-483.62 1191.09,-426.14 1233.02,-397.98 1250.1,-386.51 1398.94,-397.68 1418.02,-389.98 1434.07,-383.5 1449.07,-372.45 1461.75,-360.91"/>
<polygon fill="black" stroke="black" stroke-width="2" points="1462.72,-364.82 1467.54,-355.38 1457.89,-359.75 1462.72,-364.82"/>
</g>
<!-- CoreUtils -->
<g id="node15" class="node">
<title>CoreUtils</title>
<ellipse fill="none" stroke="black" stroke-width="2" cx="1100.02" cy="-198.99" rx="59.71" ry="40.73"/>
<text text-anchor="middle" x="1100.02" y="-211.19" font-family="Times,serif" font-size="14.00">CoreUtils</text>
<text text-anchor="middle" x="1100.02" y="-178.39" font-family="Times,serif" font-size="14.00">In: 7, Out: 7</text>
</g>
<!-- DataExporterTests&#45;&gt;CoreUtils -->
<g id="edge37" class="edge">
<title>DataExporterTests-&gt;CoreUtils</title>
<path fill="none" stroke="black" stroke-width="2" d="M1149.64,-522.63C1143.34,-487.57 1134.2,-435.49 1127.02,-389.98 1119.66,-343.3 1112.17,-290.03 1106.95,-251.8"/>
<polygon fill="black" stroke="black" stroke-width="2" points="1110.63,-252.88 1105.82,-243.44 1103.69,-253.82 1110.63,-252.88"/>
</g>
<!-- DependencyRelation -->
<g id="node21" class="node">
<title>DependencyRelation</title>
<ellipse fill="#3cb371" stroke="black" stroke-width="2" cx="3662.02" cy="-198.99" rx="94.33" ry="40.73"/>
<text text-anchor="middle" x="3662.02" y="-211.19" font-family="Times,serif" font-size="14.00">DependencyRelation</text>
<text text-anchor="middle" x="3662.02" y="-178.39" font-family="Times,serif" font-size="14.00">In: 9, Out: 1</text>
</g>
<!-- DataExporterTests&#45;&gt;DependencyRelation -->
<g id="edge42" class="edge">
<title>DataExporterTests-&gt;DependencyRelation</title>
<path fill="none" stroke="black" stroke-width="2" d="M1216.93,-534.24C1228.04,-529.92 1239.71,-526.05 1251.02,-523.43 1539.42,-456.83 1622.43,-525.02 1916.02,-487.43 2113.96,-462.09 2157.54,-418.71 2356.02,-397.98 2370.64,-396.45 3402.27,-398.81 3414.02,-389.98 3456.37,-358.14 3411.02,-313.64 3448.02,-275.72 3484.24,-238.6 3510.14,-257.06 3559.02,-239.72 3566.39,-237.1 3574.02,-234.32 3581.65,-231.47"/>
<polygon fill="black" stroke="black" stroke-width="2" points="3581.44,-235.29 3589.57,-228.5 3578.98,-228.74 3581.44,-235.29"/>
</g>
<!-- DuplicationCode -->
<g id="node22" class="node">
<title>DuplicationCode</title>
<ellipse fill="#fa8072" stroke="black" stroke-width="2" cx="3471.02" cy="-198.99" rx="78.95" ry="40.73"/>
<text text-anchor="middle" x="3471.02" y="-211.19" font-family="Times,serif" font-size="14.00">DuplicationCode</text>
<text text-anchor="middle" x="3471.02" y="-178.39" font-family="Times,serif" font-size="14.00">In: 6, Out: 7</text>
</g>
<!-- DataExporterTests&#45;&gt;DuplicationCode -->
<g id="edge41" class="edge">
<title>DataExporterTests-&gt;DuplicationCode</title>
<path fill="none" stroke="black" stroke-width="2" d="M1217.84,-534.57C1228.71,-530.3 1240.06,-526.36 1251.02,-523.43 1306.67,-508.6 2222.55,-401.68 2280.02,-397.98 2295.27,-396.99 3367.59,-398.86 3380.02,-389.98 3423.79,-358.69 3395.91,-323.82 3420.02,-275.72 3424.82,-266.15 3430.63,-256.36 3436.6,-247.13"/>
<polygon fill="black" stroke="black" stroke-width="2" points="3438.54,-250.53 3441.15,-240.26 3432.71,-246.66 3438.54,-250.53"/>
</g>
<!-- NamespaceMetrics -->
<g id="node23" class="node">
<title>NamespaceMetrics</title>
<ellipse fill="#fa8072" stroke="black" stroke-width="2" cx="3880.02" cy="-198.99" rx="87.17" ry="40.73"/>
<text text-anchor="middle" x="3880.02" y="-211.19" font-family="Times,serif" font-size="14.00">NamespaceMetrics</text>
<text text-anchor="middle" x="3880.02" y="-178.39" font-family="Times,serif" font-size="14.00">In: 6, Out: 7</text>
</g>
<!-- DataExporterTests&#45;&gt;NamespaceMetrics -->
<g id="edge40" class="edge">
<title>DataExporterTests-&gt;NamespaceMetrics</title>
<path fill="none" stroke="black" stroke-width="2" d="M1216.9,-534.11C1228.01,-529.8 1239.7,-525.97 1251.02,-523.43 1446.14,-479.81 1951.42,-510.51 2150.02,-487.43 2357.77,-463.3 2403.93,-418.95 2612.02,-397.98 2635.04,-395.66 3423.39,-398.2 3445.02,-389.98 3517.23,-362.51 3506.28,-308.95 3576.02,-275.72 3660.32,-235.54 3693.29,-265.57 3783.02,-239.72 3790.72,-237.5 3798.63,-234.87 3806.46,-232.04"/>
<polygon fill="black" stroke="black" stroke-width="2" points="3806.09,-235.92 3814.23,-229.13 3803.64,-229.36 3806.09,-235.92"/>
</g>
<!-- HashUtilsTests -->
<g id="node9" class="node">
<title>HashUtilsTests</title>
<ellipse fill="#3cb371" stroke="black" stroke-width="2" cx="648.02" cy="-564.16" rx="71.81" ry="40.73"/>
<text text-anchor="middle" x="648.02" y="-576.36" font-family="Times,serif" font-size="14.00">HashUtilsTests</text>
<text text-anchor="middle" x="648.02" y="-543.56" font-family="Times,serif" font-size="14.00">In: 2, Out: 1</text>
</g>
<!-- HashUtils -->
<g id="node20" class="node">
<title>HashUtils</title>
<ellipse fill="none" stroke="black" stroke-width="2" cx="1196.02" cy="-316.45" rx="59.71" ry="40.73"/>
<text text-anchor="middle" x="1196.02" y="-328.65" font-family="Times,serif" font-size="14.00">HashUtils</text>
<text text-anchor="middle" x="1196.02" y="-295.85" font-family="Times,serif" font-size="14.00">In: 2, Out: 2</text>
</g>
<!-- HashUtilsTests&#45;&gt;HashUtils -->
<g id="edge46" class="edge">
<title>HashUtilsTests-&gt;HashUtils</title>
<path fill="none" stroke="black" stroke-width="2" d="M701.9,-536.36C710.93,-531.98 720.22,-527.53 729.02,-523.43 873.38,-456.23 1045.17,-381.88 1134.76,-343.53"/>
<polygon fill="black" stroke="black" stroke-width="2" points="1134.67,-347.37 1142.49,-340.22 1131.92,-340.94 1134.67,-347.37"/>
</g>
<!-- CodeAnalyzerTests -->
<g id="node10" class="node">
<title>CodeAnalyzerTests</title>
<ellipse fill="#3cb371" stroke="black" stroke-width="2" cx="1983.02" cy="-564.16" rx="89.38" ry="40.73"/>
<text text-anchor="middle" x="1983.02" y="-576.36" font-family="Times,serif" font-size="14.00">CodeAnalyzerTests</text>
<text text-anchor="middle" x="1983.02" y="-543.56" font-family="Times,serif" font-size="14.00">In: 6, Out: 2</text>
</g>
<!-- CodeAnalyzerTests&#45;&gt;FileUtils -->
<g id="edge47" class="edge">
<title>CodeAnalyzerTests-&gt;FileUtils</title>
<path fill="none" stroke="black" stroke-width="2" d="M1920.21,-534.17C1908.72,-529.88 1896.67,-526.04 1885.02,-523.43 1814.22,-507.59 1282.89,-540.13 1233.02,-487.43 1205.69,-458.56 1208.55,-429.31 1233.02,-397.98 1242.04,-386.42 1252.01,-396.73 1265.02,-389.98 1280.59,-381.9 1295.71,-370.39 1308.74,-358.91"/>
<polygon fill="black" stroke="black" stroke-width="2" points="1309.7,-362.77 1314.74,-353.45 1304.98,-357.6 1309.7,-362.77"/>
</g>
<!-- CodeMetricsAnalyzer -->
<g id="node29" class="node">
<title>CodeMetricsAnalyzer</title>
<ellipse fill="#fa8072" stroke="black" stroke-width="2" cx="3156.02" cy="-446.71" rx="98.73" ry="40.73"/>
<text text-anchor="middle" x="3156.02" y="-458.91" font-family="Times,serif" font-size="14.00">CodeMetricsAnalyzer</text>
<text text-anchor="middle" x="3156.02" y="-426.11" font-family="Times,serif" font-size="14.00">In: 2, Out: 5</text>
</g>
<!-- CodeAnalyzerTests&#45;&gt;CodeMetricsAnalyzer -->
<g id="edge48" class="edge">
<title>CodeAnalyzerTests-&gt;CodeMetricsAnalyzer</title>
<path fill="none" stroke="black" stroke-width="2" d="M2045.86,-534.32C2057.36,-530.02 2069.4,-526.13 2081.02,-523.43 2092.7,-520.73 2775.38,-473.77 3046.63,-455.19"/>
<polygon fill="black" stroke="black" stroke-width="2" points="3045.31,-458.79 3055.04,-454.61 3044.83,-451.8 3045.31,-458.79"/>
</g>
<!-- CoreUtilsTests -->
<g id="node11" class="node">
<title>CoreUtilsTests</title>
<ellipse fill="#3cb371" stroke="black" stroke-width="2" cx="311.02" cy="-564.16" rx="70.71" ry="40.73"/>
<text text-anchor="middle" x="311.02" y="-576.36" font-family="Times,serif" font-size="14.00">CoreUtilsTests</text>
<text text-anchor="middle" x="311.02" y="-543.56" font-family="Times,serif" font-size="14.00">In: 7, Out: 1</text>
</g>
<!-- CoreUtilsTests&#45;&gt;CoreUtils -->
<g id="edge49" class="edge">
<title>CoreUtilsTests-&gt;CoreUtils</title>
<path fill="none" stroke="black" stroke-width="2" d="M364.26,-536.42C373.17,-532.03 382.34,-527.57 391.02,-523.43 629.59,-409.82 916.81,-281.3 1039.59,-226.75"/>
<polygon fill="black" stroke="black" stroke-width="2" points="1039.42,-230.66 1047.14,-223.4 1036.58,-224.26 1039.42,-230.66"/>
</g>
<!-- DependencyGraphGeneratorTests -->
<g id="node12" class="node">
<title>DependencyGraphGeneratorTests</title>
<ellipse fill="#3cb371" stroke="black" stroke-width="2" cx="2236.02" cy="-564.16" rx="146" ry="40.73"/>
<text text-anchor="middle" x="2236.02" y="-576.36" font-family="Times,serif" font-size="14.00">DependencyGraphGeneratorTests</text>
<text text-anchor="middle" x="2236.02" y="-543.56" font-family="Times,serif" font-size="14.00">In: 9, Out: 2</text>
</g>
<!-- DependencyGraphGeneratorTests&#45;&gt;DependencyRelation -->
<g id="edge50" class="edge">
<title>DependencyGraphGeneratorTests-&gt;DependencyRelation</title>
<path fill="none" stroke="black" stroke-width="2" d="M2345.34,-536.4C2388.09,-524.07 2436.88,-507.64 2479.02,-487.43 2543.26,-456.63 2543.98,-419.09 2612.02,-397.98 2634.2,-391.09 3427.6,-401.04 3448.02,-389.98 3501.64,-360.91 3479.1,-316.97 3524.02,-275.72 3541.83,-259.36 3563.82,-245.26 3584.96,-233.82"/>
<polygon fill="black" stroke="black" stroke-width="2" points="3585.02,-237.74 3592.25,-229.99 3581.77,-231.54 3585.02,-237.74"/>
</g>
<!-- DependencyGraphGenerator -->
<g id="node25" class="node">
<title>DependencyGraphGenerator</title>
<ellipse fill="#fa8072" stroke="black" stroke-width="2" cx="2749.02" cy="-564.16" rx="125.1" ry="40.73"/>
<text text-anchor="middle" x="2749.02" y="-576.36" font-family="Times,serif" font-size="14.00">DependencyGraphGenerator</text>
<text text-anchor="middle" x="2749.02" y="-543.56" font-family="Times,serif" font-size="14.00">In: 2, Out: 7</text>
</g>
<!-- DependencyGraphGeneratorTests&#45;&gt;DependencyGraphGenerator -->
<g id="edge51" class="edge">
<title>DependencyGraphGeneratorTests-&gt;DependencyGraphGenerator</title>
<path fill="none" stroke="black" stroke-width="2" d="M2382.81,-564.16C2459.16,-564.16 2535.52,-564.16 2611.87,-564.16"/>
<polygon fill="black" stroke="black" stroke-width="2" points="2610.11,-567.66 2620.11,-564.16 2610.11,-560.66 2610.11,-567.66"/>
</g>
<!-- DataExporter&#45;&gt;CoreUtils -->
<g id="edge4" class="edge">
<title>DataExporter-&gt;CoreUtils</title>
<path fill="none" stroke="black" stroke-width="2" d="M1451.12,-288.84C1440.45,-283.87 1429.04,-279.16 1418.02,-275.72 1318.42,-244.63 1285.91,-269.89 1186.02,-239.72 1176.64,-236.88 1166.97,-233.22 1157.65,-229.26"/>
<polygon fill="black" stroke="black" stroke-width="2" points="1160.64,-226.75 1150.08,-225.92 1157.81,-233.16 1160.64,-226.75"/>
</g>
<!-- CsvExportStrategy -->
<g id="node16" class="node">
<title>CsvExportStrategy</title>
<ellipse fill="#fa8072" stroke="black" stroke-width="2" cx="1282.02" cy="-198.99" rx="86.65" ry="40.73"/>
<text text-anchor="middle" x="1282.02" y="-211.19" font-family="Times,serif" font-size="14.00">CsvExportStrategy</text>
<text text-anchor="middle" x="1282.02" y="-178.39" font-family="Times,serif" font-size="14.00">In: 1, Out: 7</text>
</g>
<!-- DataExporter&#45;&gt;CsvExportStrategy -->
<g id="edge5" class="edge">
<title>DataExporter-&gt;CsvExportStrategy</title>
<path fill="none" stroke="black" stroke-width="2" d="M1450.55,-289.25C1420.61,-273.39 1382.03,-252.95 1349.33,-235.64"/>
<polygon fill="black" stroke="black" stroke-width="2" points="1352.54,-233.38 1342.06,-231.79 1349.26,-239.56 1352.54,-233.38"/>
</g>
<!-- JsonExportStrategy -->
<g id="node17" class="node">
<title>JsonExportStrategy</title>
<ellipse fill="#fa8072" stroke="black" stroke-width="2" cx="1476.02" cy="-198.99" rx="88.85" ry="40.73"/>
<text text-anchor="middle" x="1476.02" y="-211.19" font-family="Times,serif" font-size="14.00">JsonExportStrategy</text>
<text text-anchor="middle" x="1476.02" y="-178.39" font-family="Times,serif" font-size="14.00">In: 1, Out: 7</text>
</g>
<!-- DataExporter&#45;&gt;JsonExportStrategy -->
<g id="edge6" class="edge">
<title>DataExporter-&gt;JsonExportStrategy</title>
<path fill="none" stroke="black" stroke-width="2" d="M1491.63,-275.06C1490.03,-267.37 1488.34,-259.23 1486.68,-251.25"/>
<polygon fill="black" stroke="black" stroke-width="2" points="1490.45,-252.19 1484.99,-243.12 1483.59,-253.62 1490.45,-252.19"/>
</g>
<!-- DataExporter&#45;&gt;DependencyRelation -->
<g id="edge8" class="edge">
<title>DataExporter-&gt;DependencyRelation</title>
<path fill="none" stroke="black" stroke-width="2" d="M1565.19,-313.12C1914.15,-300.67 3546.5,-242.29 3559.02,-239.72 3567.76,-237.92 3576.73,-235.47 3585.56,-232.65"/>
<polygon fill="black" stroke="black" stroke-width="2" points="3585,-236.53 3593.36,-230.02 3582.77,-229.9 3585,-236.53"/>
</g>
<!-- DataExporter&#45;&gt;DuplicationCode -->
<g id="edge7" class="edge">
<title>DataExporter-&gt;DuplicationCode</title>
<path fill="none" stroke="black" stroke-width="2" d="M1565.19,-313.15C1891.6,-301.61 3334.85,-250.1 3380.02,-239.72 3387.99,-237.89 3396.13,-235.37 3404.11,-232.48"/>
<polygon fill="black" stroke="black" stroke-width="2" points="3403.95,-236.29 3412.02,-229.44 3401.43,-229.76 3403.95,-236.29"/>
</g>
<!-- DataExporter&#45;&gt;NamespaceMetrics -->
<g id="edge10" class="edge">
<title>DataExporter-&gt;NamespaceMetrics</title>
<path fill="none" stroke="black" stroke-width="2" d="M1565.19,-313C1736.61,-306.61 2214.29,-288.94 2612.02,-275.72 2872.22,-267.07 3528.38,-293.92 3783.02,-239.72 3791.25,-237.97 3799.67,-235.55 3807.95,-232.77"/>
<polygon fill="black" stroke="black" stroke-width="2" points="3807.62,-236.6 3815.86,-229.94 3805.27,-230.01 3807.62,-236.6"/>
</g>
<!-- DataExporter&#45;&gt;DependencyGraphGenerator -->
<g id="edge9" class="edge">
<title>DataExporter-&gt;DependencyGraphGenerator</title>
<path fill="none" stroke="black" stroke-width="2" d="M1565.36,-319.59C1763.9,-326.58 2350.83,-351.06 2422.02,-397.98 2459.7,-422.81 2434.7,-459.36 2470.02,-487.43 2511.84,-520.68 2567.11,-539.37 2617.43,-549.86"/>
<polygon fill="black" stroke="black" stroke-width="2" points="2614.96,-552.94 2625.45,-551.45 2616.32,-546.08 2614.96,-552.94"/>
</g>
<!-- CoreUtils&#45;&gt;CoreUtils -->
<g id="edge11" class="edge">
<title>CoreUtils-&gt;CoreUtils</title>
<path fill="none" stroke="black" stroke-width="2" d="M1151.58,-220.93C1166.35,-220.07 1177.73,-212.75 1177.73,-198.99 1177.73,-188.99 1171.72,-182.39 1162.77,-179.2"/>
<polygon fill="black" stroke="black" stroke-width="2" points="1165.04,-176.08 1154.56,-177.62 1163.72,-182.95 1165.04,-176.08"/>
</g>
<!-- CsvExportStrategy&#45;&gt;CsvHandler -->
<g id="edge22" class="edge">
<title>CsvExportStrategy-&gt;CsvHandler</title>
<path fill="none" stroke="black" stroke-width="2" d="M1251.97,-159.86C1243.72,-149.39 1234.7,-137.95 1226.19,-127.15"/>
<polygon fill="black" stroke="black" stroke-width="2" points="1230,-126.33 1221.06,-120.65 1224.5,-130.67 1230,-126.33"/>
</g>
<!-- JsonExportStrategy&#45;&gt;JsonHandler -->
<g id="edge36" class="edge">
<title>JsonExportStrategy-&gt;JsonHandler</title>
<path fill="none" stroke="black" stroke-width="2" d="M1451.31,-158.9C1445.35,-149.48 1438.92,-139.32 1432.77,-129.57"/>
<polygon fill="black" stroke="black" stroke-width="2" points="1436.64,-129.16 1428.34,-122.57 1430.73,-132.9 1436.64,-129.16"/>
</g>
<!-- DependencyRelation&#45;&gt;DependencyRelation -->
<g id="edge3" class="edge">
<title>DependencyRelation-&gt;DependencyRelation</title>
<path fill="none" stroke="black" stroke-width="2" d="M3743.81,-220.36C3761.51,-218.27 3774.35,-211.15 3774.35,-198.99 3774.35,-189.58 3766.67,-183.19 3755,-179.81"/>
<polygon fill="black" stroke="black" stroke-width="2" points="3757.26,-176.69 3746.78,-178.2 3755.92,-183.56 3757.26,-176.69"/>
</g>
<!-- AnalysisResult -->
<g id="node24" class="node">
<title>AnalysisResult</title>
<ellipse fill="#fa8072" stroke="black" stroke-width="2" cx="3799.02" cy="-316.45" rx="71.26" ry="40.73"/>
<text text-anchor="middle" x="3799.02" y="-328.65" font-family="Times,serif" font-size="14.00">AnalysisResult</text>
<text text-anchor="middle" x="3799.02" y="-295.85" font-family="Times,serif" font-size="14.00">In: 2, Out: 7</text>
</g>
<!-- AnalysisResult&#45;&gt;DependencyRelation -->
<g id="edge25" class="edge">
<title>AnalysisResult-&gt;DependencyRelation</title>
<path fill="none" stroke="black" stroke-width="2" d="M3759.03,-281.74C3744.77,-269.72 3728.5,-256.01 3713.41,-243.3"/>
<polygon fill="black" stroke="black" stroke-width="2" points="3716.91,-241.67 3707.01,-237.9 3712.4,-247.02 3716.91,-241.67"/>
</g>
<!-- AnalysisResult&#45;&gt;DuplicationCode -->
<g id="edge24" class="edge">
<title>AnalysisResult-&gt;DuplicationCode</title>
<path fill="none" stroke="black" stroke-width="2" d="M3734.9,-297.46C3686.15,-283.25 3617.69,-262.13 3559.02,-239.72 3552.65,-237.28 3546.08,-234.62 3539.54,-231.86"/>
<polygon fill="black" stroke="black" stroke-width="2" points="3542.66,-229.39 3532.09,-228.66 3539.9,-235.82 3542.66,-229.39"/>
</g>
<!-- AnalysisResult&#45;&gt;NamespaceMetrics -->
<g id="edge23" class="edge">
<title>AnalysisResult-&gt;NamespaceMetrics</title>
<path fill="none" stroke="black" stroke-width="2" d="M3825.54,-277.64C3832.19,-268.17 3839.4,-257.89 3846.34,-247.99"/>
<polygon fill="black" stroke="black" stroke-width="2" points="3848.27,-251.34 3851.15,-241.15 3842.54,-247.32 3848.27,-251.34"/>
</g>
<!-- DependencyGraphGenerator&#45;&gt;DependencyRelation -->
<g id="edge52" class="edge">
<title>DependencyGraphGenerator-&gt;DependencyRelation</title>
<path fill="none" stroke="black" stroke-width="2" d="M2865.22,-548.18C2993.1,-531.33 3190.31,-504.12 3264.02,-487.43 3407.37,-454.99 3470.62,-488.12 3580.02,-389.98 3620.4,-353.75 3641.67,-294.15 3652.33,-251.37"/>
<polygon fill="black" stroke="black" stroke-width="2" points="3655.35,-253.81 3654.24,-243.27 3648.54,-252.2 3655.35,-253.81"/>
</g>
<!-- SolutionAnalyzer -->
<g id="node26" class="node">
<title>SolutionAnalyzer</title>
<ellipse fill="#fa8072" stroke="black" stroke-width="2" cx="3156.02" cy="-564.16" rx="81.15" ry="40.73"/>
<text text-anchor="middle" x="3156.02" y="-576.36" font-family="Times,serif" font-size="14.00">SolutionAnalyzer</text>
<text text-anchor="middle" x="3156.02" y="-543.56" font-family="Times,serif" font-size="14.00">In: 2, Out: 7</text>
</g>
<!-- SolutionAnalyzer&#45;&gt;DataExporter -->
<g id="edge33" class="edge">
<title>SolutionAnalyzer-&gt;DataExporter</title>
<path fill="none" stroke="black" stroke-width="2" d="M3078.49,-550.85C3023.92,-542.44 2949.12,-531.41 2883.02,-523.43 2799.91,-513.4 2577.72,-533.8 2508.02,-487.43 2470.45,-462.44 2497.74,-422.74 2460.02,-397.98 2386.83,-349.92 1791.08,-326.6 1576.6,-319.7"/>
<polygon fill="black" stroke="black" stroke-width="2" points="1578.29,-316.26 1568.18,-319.44 1578.07,-323.25 1578.29,-316.26"/>
</g>
<!-- SolutionAnalyzer&#45;&gt;CoreUtils -->
<g id="edge30" class="edge">
<title>SolutionAnalyzer-&gt;CoreUtils</title>
<path fill="none" stroke="black" stroke-width="2" d="M3086.01,-542.78C2966.41,-508.58 2714.65,-439.36 2498.02,-397.98 2091.13,-320.25 1985.67,-322.03 1574.02,-275.72 1401.92,-256.36 1353.27,-284.68 1186.02,-239.72 1176.56,-237.17 1166.84,-233.66 1157.5,-229.77"/>
<polygon fill="black" stroke="black" stroke-width="2" points="1160.49,-227.26 1149.93,-226.46 1157.69,-233.67 1160.49,-227.26"/>
</g>
<!-- SolutionAnalyzer&#45;&gt;NamespaceMetrics -->
<g id="edge34" class="edge">
<title>SolutionAnalyzer-&gt;NamespaceMetrics</title>
<path fill="none" stroke="black" stroke-width="2" d="M3237.83,-562.34C3368.14,-559.28 3614.42,-545.69 3676.02,-487.43 3745.78,-421.46 3659.72,-351.23 3719.02,-275.72 3725.17,-267.88 3765.99,-248.72 3804.98,-231.63"/>
<polygon fill="black" stroke="black" stroke-width="2" points="3804.82,-235.52 3812.59,-228.32 3802.03,-229.11 3804.82,-235.52"/>
</g>
<!-- SolutionAnalyzer&#45;&gt;AnalysisResult -->
<g id="edge31" class="edge">
<title>SolutionAnalyzer-&gt;AnalysisResult</title>
<path fill="none" stroke="black" stroke-width="2" d="M3237.94,-561.27C3374.09,-556.64 3639.38,-540.83 3714.02,-487.43 3753.43,-459.24 3775.59,-407.46 3787.33,-368.43"/>
<polygon fill="black" stroke="black" stroke-width="2" points="3790.23,-371.02 3789.61,-360.44 3783.5,-369.1 3790.23,-371.02"/>
</g>
<!-- SolutionAnalyzer&#45;&gt;CodeMetricsAnalyzer -->
<g id="edge32" class="edge">
<title>SolutionAnalyzer-&gt;CodeMetricsAnalyzer</title>
<path fill="none" stroke="black" stroke-width="2" d="M3156.02,-522.46C3156.02,-515.13 3156.02,-507.4 3156.02,-499.8"/>
<polygon fill="black" stroke="black" stroke-width="2" points="3159.52,-501.46 3156.02,-491.46 3152.52,-501.46 3159.52,-501.46"/>
</g>
<!-- ComplexityWalker -->
<g id="node30" class="node">
<title>ComplexityWalker</title>
<ellipse fill="none" stroke="black" stroke-width="2" cx="2769.02" cy="-198.99" rx="87.19" ry="40.73"/>
<text text-anchor="middle" x="2769.02" y="-211.19" font-family="Times,serif" font-size="14.00">ComplexityWalker</text>
<text text-anchor="middle" x="2769.02" y="-178.39" font-family="Times,serif" font-size="14.00">In: 1, Out: 1</text>
</g>
<!-- CyclomaticComplexityCalculator&#45;&gt;ComplexityWalker -->
<g id="edge35" class="edge">
<title>CyclomaticComplexityCalculator-&gt;ComplexityWalker</title>
<path fill="none" stroke="black" stroke-width="2" d="M2769.02,-274.74C2769.02,-267.41 2769.02,-259.68 2769.02,-252.08"/>
<polygon fill="black" stroke="black" stroke-width="2" points="2772.52,-253.74 2769.02,-243.74 2765.52,-253.74 2772.52,-253.74"/>
</g>
<!-- CodeDuplicationChecker&#45;&gt;HashUtils -->
<g id="edge29" class="edge">
<title>CodeDuplicationChecker-&gt;HashUtils</title>
<path fill="none" stroke="black" stroke-width="2" d="M2997.56,-354.34C2974.09,-370.71 2944.23,-387.57 2914.02,-393.98 2891.94,-398.66 1311.1,-398.66 1289.02,-393.98 1267.48,-389.41 1248,-375.6 1232.5,-360.87"/>
<polygon fill="black" stroke="black" stroke-width="2" points="1236.45,-359.88 1226.9,-355.28 1231.5,-364.82 1236.45,-359.88"/>
</g>
<!-- CodeDuplicationChecker&#45;&gt;DuplicationCode -->
<g id="edge28" class="edge">
<title>CodeDuplicationChecker-&gt;DuplicationCode</title>
<path fill="none" stroke="black" stroke-width="2" d="M3124.24,-287.23C3137.75,-283.02 3151.71,-279 3165.02,-275.72 3259.09,-252.54 3287.15,-267.31 3380.02,-239.72 3387.55,-237.48 3395.27,-234.78 3402.89,-231.86"/>
<polygon fill="black" stroke="black" stroke-width="2" points="3402.76,-235.68 3410.75,-228.72 3400.17,-229.18 3402.76,-235.68"/>
</g>
<!-- CodeMetricsAnalyzer&#45;&gt;FileUtils -->
<g id="edge56" class="edge">
<title>CodeMetricsAnalyzer-&gt;FileUtils</title>
<path fill="none" stroke="black" stroke-width="2" d="M3058.75,-437.61C2918.29,-426.33 2650.45,-406.31 2422.02,-397.98 2394.37,-396.97 1451.7,-400.28 1426.02,-389.98 1410.51,-383.75 1396.3,-372.79 1384.42,-361.24"/>
<polygon fill="black" stroke="black" stroke-width="2" points="1388.18,-360.08 1378.7,-355.37 1383.17,-364.97 1388.18,-360.08"/>
</g>
<!-- CodeMetricsAnalyzer&#45;&gt;DependencyRelation -->
<g id="edge55" class="edge">
<title>CodeMetricsAnalyzer-&gt;DependencyRelation</title>
<path fill="none" stroke="black" stroke-width="2" d="M3253.83,-439.41C3347.15,-431.89 3479.85,-416.84 3524.02,-389.98 3531.45,-385.46 3590.28,-302.56 3628.69,-247.77"/>
<polygon fill="black" stroke="black" stroke-width="2" points="3630.54,-251.25 3633.41,-241.05 3624.8,-247.23 3630.54,-251.25"/>
</g>
<!-- CodeMetricsAnalyzer&#45;&gt;DuplicationCode -->
<g id="edge54" class="edge">
<title>CodeMetricsAnalyzer-&gt;DuplicationCode</title>
<path fill="none" stroke="black" stroke-width="2" d="M3251.48,-434.75C3313.4,-425.81 3386.73,-411.16 3410.02,-389.98 3448.76,-354.75 3463.02,-294.89 3468.2,-251.77"/>
<polygon fill="black" stroke="black" stroke-width="2" points="3471.51,-253.68 3469.09,-243.37 3464.55,-252.95 3471.51,-253.68"/>
</g>
<!-- CodeMetricsAnalyzer&#45;&gt;NamespaceMetrics -->
<g id="edge53" class="edge">
<title>CodeMetricsAnalyzer-&gt;NamespaceMetrics</title>
<path fill="none" stroke="black" stroke-width="2" d="M3254.16,-440.5C3361.29,-433.47 3524.94,-418.43 3580.02,-389.98 3641.57,-358.19 3628.43,-314.21 3686.02,-275.72 3724.25,-250.17 3740.18,-256.43 3783.02,-239.72 3789.97,-237.01 3797.18,-234.14 3804.39,-231.25"/>
<polygon fill="black" stroke="black" stroke-width="2" points="3804.15,-235.12 3812.11,-228.13 3801.53,-228.63 3804.15,-235.12"/>
</g>
<!-- CodeMetricsAnalyzer&#45;&gt;CyclomaticComplexityCalculator -->
<g id="edge59" class="edge">
<title>CodeMetricsAnalyzer-&gt;CyclomaticComplexityCalculator</title>
<path fill="none" stroke="black" stroke-width="2" d="M3066.27,-428.75C3022.45,-419.34 2969.33,-406.23 2923.02,-389.98 2897.77,-381.11 2871.11,-369.45 2847.2,-358.07"/>
<polygon fill="black" stroke="black" stroke-width="2" points="2850.39,-355.72 2839.86,-354.53 2847.35,-362.02 2850.39,-355.72"/>
</g>
<!-- CodeMetricsAnalyzer&#45;&gt;CodeDuplicationChecker -->
<g id="edge57" class="edge">
<title>CodeMetricsAnalyzer-&gt;CodeDuplicationChecker</title>
<path fill="none" stroke="black" stroke-width="2" d="M3122.72,-407.57C3110.97,-394.12 3097.62,-378.83 3085.29,-364.71"/>
<polygon fill="black" stroke="black" stroke-width="2" points="3088.98,-363.61 3079.77,-358.38 3083.71,-368.21 3088.98,-363.61"/>
</g>
<!-- DependencyAnalyzer -->
<g id="node31" class="node">
<title>DependencyAnalyzer</title>
<ellipse fill="#fa8072" stroke="black" stroke-width="2" cx="3271.02" cy="-316.45" rx="97.06" ry="40.73"/>
<text text-anchor="middle" x="3271.02" y="-328.65" font-family="Times,serif" font-size="14.00">DependencyAnalyzer</text>
<text text-anchor="middle" x="3271.02" y="-295.85" font-family="Times,serif" font-size="14.00">In: 1, Out: 7</text>
</g>
<!-- CodeMetricsAnalyzer&#45;&gt;DependencyAnalyzer -->
<g id="edge58" class="edge">
<title>CodeMetricsAnalyzer-&gt;DependencyAnalyzer</title>
<path fill="none" stroke="black" stroke-width="2" d="M3190.21,-407.57C3202.61,-393.74 3216.75,-377.98 3229.7,-363.54"/>
<polygon fill="black" stroke="black" stroke-width="2" points="3231.07,-367.25 3235.14,-357.47 3225.86,-362.58 3231.07,-367.25"/>
</g>
<!-- DependencyAnalyzer&#45;&gt;FileUtils -->
<g id="edge61" class="edge">
<title>DependencyAnalyzer-&gt;FileUtils</title>
<path fill="none" stroke="black" stroke-width="2" d="M3231.29,-354.39C3210.64,-371 3183.93,-388.05 3156.02,-393.98 3132.64,-398.94 1458.4,-398.94 1435.02,-393.98 1414.78,-389.68 1396.91,-376.3 1382.78,-361.84"/>
<polygon fill="black" stroke="black" stroke-width="2" points="1386.72,-360.96 1377.37,-355.98 1381.58,-365.7 1386.72,-360.96"/>
</g>
<!-- DependencyAnalyzer&#45;&gt;DependencyRelation -->
<g id="edge60" class="edge">
<title>DependencyAnalyzer-&gt;DependencyRelation</title>
<path fill="none" stroke="black" stroke-width="2" d="M3342.05,-287.81C3354.59,-283.43 3367.61,-279.21 3380.02,-275.72 3458.14,-253.76 3481.11,-262.4 3559.02,-239.72 3566.95,-237.41 3575.14,-234.75 3583.26,-231.93"/>
<polygon fill="black" stroke="black" stroke-width="2" points="3582.78,-235.81 3591.02,-229.15 3580.43,-229.22 3582.78,-235.81"/>
</g>
<!-- SolutionAnalyzerTest -->
<g id="node32" class="node">
<title>SolutionAnalyzerTest</title>
<ellipse fill="#fa8072" stroke="black" stroke-width="2" cx="3799.02" cy="-694.42" rx="98.19" ry="40.73"/>
<text text-anchor="middle" x="3799.02" y="-706.62" font-family="Times,serif" font-size="14.00">SolutionAnalyzerTest</text>
<text text-anchor="middle" x="3799.02" y="-673.82" font-family="Times,serif" font-size="14.00">In: 6, Out: 7</text>
</g>
<!-- SolutionAnalyzerTest&#45;&gt;CoreUtils -->
<g id="edge21" class="edge">
<title>SolutionAnalyzerTest-&gt;CoreUtils</title>
<path fill="none" stroke="black" stroke-width="2" d="M3700.25,-692.82C3127.73,-689.2 259.35,-669.51 228.02,-637.69 153.28,-561.77 163.31,-482.61 228.02,-397.98 325.85,-270.02 838.03,-219.41 1028.55,-204.83"/>
<polygon fill="black" stroke="black" stroke-width="2" points="1027.09,-208.45 1036.8,-204.21 1026.56,-201.47 1027.09,-208.45"/>
</g>
<!-- SolutionAnalyzerTest&#45;&gt;FileUtils -->
<g id="edge15" class="edge">
<title>SolutionAnalyzerTest-&gt;FileUtils</title>
<path fill="none" stroke="black" stroke-width="2" d="M3700.08,-692.24C3433.3,-688.58 2712.5,-675.29 2612.02,-637.69 2511.19,-599.97 2483.03,-576.14 2422.02,-487.43 2398.41,-453.11 2427.49,-422.78 2394.02,-397.98 2372.42,-381.96 1450.97,-400 1426.02,-389.98 1410.51,-383.75 1396.3,-372.78 1384.42,-361.24"/>
<polygon fill="black" stroke="black" stroke-width="2" points="1388.19,-360.08 1378.7,-355.37 1383.17,-364.97 1388.19,-360.08"/>
</g>
<!-- SolutionAnalyzerTest&#45;&gt;DependencyRelation -->
<g id="edge20" class="edge">
<title>SolutionAnalyzerTest-&gt;DependencyRelation</title>
<path fill="none" stroke="black" stroke-width="2" d="M3877.63,-669C3891.3,-661.19 3903.76,-650.98 3912.02,-637.69 3954.5,-569.38 3960.59,-339.84 3912.02,-275.72 3876.34,-228.61 3840.57,-256.87 3784.02,-239.72 3772.15,-236.12 3759.67,-232.2 3747.41,-228.28"/>
<polygon fill="black" stroke="black" stroke-width="2" points="3750.19,-225.5 3739.59,-225.77 3748.04,-232.16 3750.19,-225.5"/>
</g>
<!-- SolutionAnalyzerTest&#45;&gt;DuplicationCode -->
<g id="edge19" class="edge">
<title>SolutionAnalyzerTest-&gt;DuplicationCode</title>
<path fill="none" stroke="black" stroke-width="2" d="M3814.7,-653.28C3849.98,-559.81 3928.78,-331.39 3879.02,-275.72 3831.33,-222.36 3628.03,-258.67 3559.02,-239.72 3551.96,-237.78 3544.75,-235.34 3537.64,-232.64"/>
<polygon fill="black" stroke="black" stroke-width="2" points="3540.73,-230.11 3530.15,-229.64 3538.13,-236.61 3540.73,-230.11"/>
</g>
<!-- SolutionAnalyzerTest&#45;&gt;NamespaceMetrics -->
<g id="edge18" class="edge">
<title>SolutionAnalyzerTest-&gt;NamespaceMetrics</title>
<path fill="none" stroke="black" stroke-width="2" d="M3890.99,-678.85C3913.98,-670.61 3936.04,-657.75 3950.02,-637.69 4042,-505.7 4008.65,-425.53 3950.02,-275.72 3945.52,-264.23 3938.38,-253.44 3930.33,-243.8"/>
<polygon fill="black" stroke="black" stroke-width="2" points="3934.02,-242.68 3924.76,-237.55 3928.8,-247.34 3934.02,-242.68"/>
</g>
<!-- SolutionAnalyzerTest&#45;&gt;AnalysisResult -->
<g id="edge17" class="edge">
<title>SolutionAnalyzerTest-&gt;AnalysisResult</title>
<path fill="none" stroke="black" stroke-width="2" d="M3799.02,-652.83C3799.02,-584.11 3799.02,-444.96 3799.02,-369.29"/>
<polygon fill="black" stroke="black" stroke-width="2" points="3802.52,-371.18 3799.02,-361.18 3795.52,-371.18 3802.52,-371.18"/>
</g>
<!-- SolutionAnalyzerTest&#45;&gt;SolutionAnalyzer -->
<g id="edge16" class="edge">
<title>SolutionAnalyzerTest-&gt;SolutionAnalyzer</title>
<path fill="none" stroke="black" stroke-width="2" d="M3710.63,-675.79C3587.28,-651.19 3364.95,-606.84 3242.59,-582.43"/>
<polygon fill="black" stroke="black" stroke-width="2" points="3244.89,-579.32 3234.4,-580.8 3243.52,-586.19 3244.89,-579.32"/>
</g>
<!-- Program -->
<g id="node33" class="node">
<title>Program</title>
<ellipse fill="#3cb371" stroke="black" stroke-width="2" cx="212.02" cy="-694.42" rx="59.71" ry="40.73"/>
<text text-anchor="middle" x="212.02" y="-706.62" font-family="Times,serif" font-size="14.00">Program</text>
<text text-anchor="middle" x="212.02" y="-673.82" font-family="Times,serif" font-size="14.00">In: 7, Out: 3</text>
</g>
<!-- Program&#45;&gt;CoreUtils -->
<g id="edge43" class="edge">
<title>Program-&gt;CoreUtils</title>
<path fill="none" stroke="black" stroke-width="2" d="M151.77,-689.84C115.32,-684.18 71.49,-670.45 48.02,-637.69 -50.2,-500.58 10.18,-349.15 162.02,-275.72 314.62,-201.92 836.15,-198 1028.24,-199.17"/>
<polygon fill="black" stroke="black" stroke-width="2" points="1026.54,-202.65 1036.56,-199.22 1026.59,-195.65 1026.54,-202.65"/>
</g>
<!-- Program&#45;&gt;FileUtils -->
<g id="edge44" class="edge">
<title>Program-&gt;FileUtils</title>
<path fill="none" stroke="black" stroke-width="2" d="M199.38,-653.77C181.72,-589.68 159,-463.86 228.02,-397.98 238.44,-388.03 1251.54,-395.05 1265.02,-389.98 1281.88,-383.63 1297.64,-372.24 1310.84,-360.34"/>
<polygon fill="black" stroke="black" stroke-width="2" points="1312.07,-363.99 1316.93,-354.58 1307.26,-358.91 1312.07,-363.99"/>
</g>
<!-- Program&#45;&gt;SolutionAnalyzer -->
<g id="edge45" class="edge">
<title>Program-&gt;SolutionAnalyzer</title>
<path fill="none" stroke="black" stroke-width="2" d="M272.52,-693.03C644.74,-690.47 2617.01,-675.25 2883.02,-637.69 2949.8,-628.26 3023.62,-608.03 3077.64,-591.33"/>
<polygon fill="black" stroke="black" stroke-width="2" points="3077.12,-595.16 3085.62,-588.83 3075.03,-588.48 3077.12,-595.16"/>
</g>
</g>
</svg>